<svg width="806" height="180" viewBox="0 0 806 180" fill="none" xmlns="http://www.w3.org/2000/svg">
<g clip-path="url(#clip0_702_3666)">
<mask id="mask0_702_3666" style="mask-type:luminance" maskUnits="userSpaceOnUse" x="0" y="0" width="806" height="180">
<path d="M806 0H0V180H806V0Z" fill="white"/>
</mask>
<g mask="url(#mask0_702_3666)">
<path d="M732.854 68.7951H731.882C727.831 68.7951 723.941 70.2521 720.538 72.1941C708.709 80.6111 710.815 93.7231 710.815 106.511C710.815 118.813 720.538 129.496 732.854 129.496H755.865C768.181 129.496 777.904 118.813 777.904 106.511C777.904 95.1801 779.849 84.9821 772.07 76.0791C770.126 73.6511 767.209 71.7091 764.13 70.2521C761.699 69.2811 758.782 68.7951 755.865 68.7951H732.854ZM721.997 152.644C699.958 149.083 683.267 130.468 682.78 107.968C682.294 92.7521 681.808 79.1551 690.073 66.3671C698.013 53.0931 712.76 44.8381 727.831 44.8381H760.727C785.359 44.8381 805.453 65.8811 805.939 89.8381C805.939 103.111 806.911 115.899 800.915 127.554C793.137 142.77 777.904 153.129 760.727 153.129H727.831C725.886 153.129 723.941 153.129 721.997 152.644ZM354.141 86.9241H284.621V100.198C284.621 107.158 289.321 110.881 296.289 110.881H354.141C352.683 121.241 344.094 128.525 334.047 129.496H284.621V142.284C284.621 150.54 289.321 153.129 296.289 153.129H340.043C360.299 153.129 382.662 132.896 382.662 111.367V86.4391C382.662 65.8811 360.623 44.8381 340.043 44.8381H193.387V56.9781C193.387 63.1291 197.6 68.7951 204.082 68.7951H240.381V138.885C240.381 145.845 244.919 153.129 252.697 153.129H268.416V68.7951H271.819H334.047C342.96 68.7951 354.627 77.0501 354.141 86.9241ZM468.063 116.385L495.45 44.8381H531.263C537.907 44.5141 543.093 50.3421 543.093 56.4931V153.129H527.86C519.919 153.129 515.058 146.007 515.058 138.885V68.7951L482.161 153.129H454.289L421.392 68.7951V138.885C421.392 145.845 416.369 153.129 408.59 153.129H393.52V56.4931C393.358 50.6651 398.219 44.8381 404.701 44.8381H441L468.063 116.385ZM660.255 44.8381C665.765 44.8381 671.923 50.9891 671.923 56.4931V153.129H656.852C649.236 153.129 644.05 146.331 644.05 138.885V68.7951H581.823V138.885C581.823 146.007 576.799 153.129 569.021 153.129H553.788V56.4931C553.788 50.3421 558.811 44.6761 565.618 44.8381H660.255Z" fill="#595D62"/>
<path d="M31.8206 0C14.4811 0.162 0.220594 14.406 0.0585938 31.727V148.112C0.220594 165.755 14.4811 180 31.9826 180H148.173C165.837 180 180.259 165.594 180.259 147.95V31.888C180.259 14.406 165.999 0.162 148.335 0H31.8206ZM30.3621 130.468L30.038 130.144L29.876 129.82C-1.07581 83.201 30.2001 19.101 87.08 17.968L143.474 17.806V25.414C143.312 29.622 140.395 32.536 136.181 32.86C119.328 32.86 102.313 32.86 85.297 32.86H83.839C39.437 37.068 17.5601 87.572 43.326 123.345L43.488 123.831H101.827L102.961 119.622L113.008 81.583H89.835C85.784 81.583 82.38 78.183 82.38 74.137L84.487 66.691H116.897H136.181L117.383 138.723H36.6821C34.4134 136.133 32.3067 133.381 30.3621 130.468ZM93.076 162.032H36.8441V154.586C37.0062 150.378 39.923 147.302 44.136 147.14C60.99 147.14 78.005 147.14 95.02 147.14L96.317 146.978C140.881 142.932 162.596 92.266 136.992 56.655L136.667 56.169H78.491L77.843 58.597L75.736 66.529V66.691L67.31 98.255H90.483C94.534 98.417 97.775 101.655 97.775 105.701L95.831 113.147H63.42H63.096H43.974L48.026 98.417L54.67 73.327C54.67 72.842 54.832 72.518 54.994 72.032H54.832L62.934 41.277H143.474C145.904 43.867 148.011 46.457 149.956 49.371L150.28 49.856L150.442 50.18C181.394 96.96 150.118 160.414 93.076 162.032Z" fill="#595D62"/>
<path d="M763.804 20.072C763.48 25.414 762.669 29.46 761.211 32.05H770.124V20.072H763.804ZM761.373 17.806H773.041V32.05H774.823V39.011H772.554V34.316H759.428V39.011H756.998V32.05H758.618C760.563 29.298 761.535 24.604 761.373 17.806ZM743.871 26.061C743.871 28.165 744.358 29.784 745.33 30.755C746.14 31.888 747.437 32.374 748.733 32.374C750.191 32.374 751.326 31.888 752.298 30.755C753.27 29.784 753.757 28.165 753.757 25.899C753.757 23.957 753.27 22.338 752.298 21.367C751.326 20.234 750.191 19.748 748.733 19.748C747.437 19.748 746.14 20.234 745.33 21.367C744.358 22.338 743.871 23.957 743.871 26.061ZM740.955 26.061C740.955 22.986 741.927 20.719 743.547 19.262C745.006 17.968 746.788 17.32 748.733 17.32C751.164 17.32 752.946 18.129 754.405 19.586C755.863 21.043 756.674 23.147 756.674 25.737C756.674 28.003 756.349 29.622 755.701 30.917C755.053 32.05 754.081 33.021 752.784 33.669C751.65 34.316 750.191 34.64 748.733 34.64C746.464 34.64 744.52 33.993 743.223 32.536C741.765 30.917 740.955 28.813 740.955 26.061ZM728.153 32.05H731.88C733.5 32.05 734.635 31.888 735.121 31.565C735.769 31.079 736.093 30.432 736.093 29.622C736.093 28.975 735.931 28.489 735.607 28.165C735.283 27.68 734.797 27.356 734.31 27.194C733.662 27.194 732.852 27.032 731.556 27.032H728.153V32.05ZM728.153 24.766H731.232C732.366 24.766 733.176 24.766 733.662 24.604C734.148 24.442 734.473 24.119 734.797 23.795C735.121 23.471 735.445 22.986 735.445 22.5C735.445 21.529 735.121 20.881 734.473 20.557C733.824 20.234 732.852 20.072 731.232 20.072H728.153V24.766ZM725.398 17.806H731.88C733.5 17.806 734.635 17.806 735.445 18.129C736.255 18.453 736.903 18.939 737.389 19.586C738.038 20.234 738.2 21.205 738.2 22.176C738.2 22.986 738.038 23.633 737.714 24.28C737.389 24.766 736.903 25.252 736.255 25.737C737.065 26.061 737.714 26.547 738.2 27.194C738.686 27.842 739.01 28.813 739.01 29.784C738.848 31.241 738.362 32.536 737.389 33.183C736.255 33.993 734.797 34.316 732.852 34.316H725.398V17.806ZM718.105 26.061C717.133 26.385 715.675 26.87 713.568 27.032C712.434 27.194 711.623 27.518 711.137 27.68C710.651 27.842 710.165 28.165 710.003 28.489C709.679 28.975 709.517 29.46 709.517 29.946C709.517 30.593 709.841 31.241 710.489 31.727C710.975 32.212 711.785 32.536 712.92 32.536C714.054 32.536 715.026 32.212 715.837 31.727C716.647 31.403 717.295 30.755 717.781 29.784C717.943 29.298 718.105 28.327 718.105 27.032V26.061ZM718.429 32.212C717.295 33.183 716.323 33.831 715.351 34.155C714.378 34.478 713.406 34.64 712.272 34.64C710.489 34.64 709.031 34.316 708.058 33.345C707.086 32.536 706.6 31.403 706.6 29.946C706.6 29.137 706.762 28.489 707.086 27.68C707.41 27.032 707.896 26.547 708.544 26.061C709.193 25.737 709.841 25.414 710.651 25.252C711.137 25.09 711.947 24.928 713.082 24.766C715.351 24.442 717.133 24.119 718.105 23.795C718.105 23.471 718.105 23.147 718.105 23.147C718.105 22.014 717.943 21.205 717.295 20.719C716.647 20.072 715.513 19.748 714.216 19.748C712.758 19.748 711.785 19.91 711.137 20.396C710.489 20.881 710.165 21.691 709.841 22.824L707.086 22.5C707.248 21.367 707.734 20.396 708.22 19.586C708.868 18.939 709.679 18.291 710.813 17.968C711.947 17.644 713.082 17.32 714.54 17.32C715.999 17.32 717.133 17.482 718.105 17.806C718.916 18.291 719.564 18.615 720.05 19.101C720.374 19.586 720.698 20.234 720.86 21.043C721.022 21.529 721.022 22.338 721.022 23.633V27.356C721.022 29.946 721.022 31.727 721.184 32.374C721.346 33.021 721.508 33.669 721.833 34.316H718.916C718.592 33.831 718.429 33.021 718.429 32.212ZM696.553 26.87V24.604C697.687 24.604 698.497 24.604 698.983 24.442C699.307 24.442 699.794 24.119 700.118 23.795C700.604 23.309 700.766 22.824 700.766 22.176C700.766 21.367 700.442 20.881 699.956 20.396C699.47 19.91 698.821 19.748 698.011 19.748C696.391 19.748 695.256 20.557 694.608 22.5L692.015 22.014C692.825 18.939 694.77 17.32 698.011 17.32C699.794 17.32 701.252 17.806 702.224 18.777C703.197 19.748 703.683 20.881 703.683 22.338C703.683 23.633 703.035 24.766 701.738 25.575C702.549 25.899 703.197 26.547 703.683 27.194C704.007 28.003 704.331 28.813 704.331 29.622C704.331 31.241 703.683 32.374 702.549 33.345C701.576 34.316 699.956 34.64 698.011 34.64C694.284 34.64 692.015 33.021 691.529 29.622L694.122 29.137C694.284 30.108 694.77 30.917 695.58 31.565C696.391 32.212 697.201 32.374 698.173 32.374C699.145 32.374 699.794 32.212 700.442 31.565C701.09 31.079 701.414 30.432 701.414 29.622C701.414 28.975 701.252 28.327 700.766 27.842C700.442 27.356 699.956 27.194 699.632 27.032C699.145 26.87 698.335 26.87 697.201 26.87C697.039 26.87 696.877 26.87 696.553 26.87ZM675.648 11.655H677.593C677.431 12.95 676.944 13.921 676.134 14.568C675.324 15.378 674.352 15.701 673.055 15.701C671.597 15.701 670.624 15.378 669.814 14.568C669.004 13.921 668.518 12.95 668.356 11.655H670.3C670.462 12.302 670.787 12.788 671.111 13.111C671.597 13.597 672.245 13.759 672.893 13.759C673.703 13.759 674.352 13.597 674.838 13.273C675.324 12.788 675.648 12.302 675.648 11.655ZM665.925 17.806H668.842V30.432L676.62 17.806H679.699V34.316H676.782V21.691L669.004 34.316H665.925V17.806ZM645.831 32.05H648.748C650.53 32.05 651.827 31.888 652.637 31.403C653.285 30.917 653.771 30.27 653.771 29.298C653.771 28.651 653.447 28.003 652.961 27.356C652.313 26.87 651.016 26.547 649.072 26.547H645.831V32.05ZM642.914 17.806H645.831V24.28H649.396C651.665 24.28 653.447 24.766 654.743 25.575C656.04 26.547 656.688 27.68 656.688 29.298C656.688 30.755 656.04 31.888 655.068 32.86C653.933 33.831 652.313 34.316 650.044 34.316H642.914V17.806ZM658.795 17.806H661.55V34.316H658.795V17.806ZM625.25 17.806H628.005V24.604H635.784V17.806H638.7V34.316H635.784V27.032H628.005V34.316H625.25V17.806ZM618.768 25.899C618.768 24.28 618.444 22.824 617.634 21.691C616.824 20.557 615.689 20.072 614.069 20.072C612.61 20.072 611.314 20.719 610.504 21.852C609.693 22.986 609.207 24.604 609.207 26.547C609.207 28.489 609.693 29.946 610.666 30.917C611.638 31.888 612.772 32.374 614.069 32.374C615.527 32.374 616.662 31.888 617.472 30.593C618.444 29.46 618.768 28.003 618.768 25.899ZM618.93 10.845H621.361C621.361 11.978 621.037 12.788 620.713 13.273C620.227 13.597 619.741 13.921 619.254 14.083C618.606 14.244 617.472 14.244 615.689 14.244C613.421 14.244 611.8 14.568 610.99 14.892C610.179 15.378 609.531 16.187 609.045 17.158C608.721 18.129 608.559 19.424 608.559 20.881C609.207 19.91 610.017 19.101 610.99 18.453C611.962 17.968 613.096 17.806 614.231 17.806C616.337 17.806 618.282 18.453 619.578 19.91C621.037 21.529 621.847 23.471 621.847 26.061C621.847 28.003 621.361 29.622 620.713 30.755C619.903 32.05 619.092 33.021 618.12 33.669C617.148 34.316 615.851 34.64 614.069 34.64C612.124 34.64 610.666 34.316 609.531 33.345C608.397 32.536 607.587 31.241 606.938 29.946C606.452 28.489 606.128 26.061 606.128 22.5C606.128 18.129 606.776 15.216 608.397 13.759C609.855 12.14 612.124 11.493 615.203 11.493C617.148 11.493 618.12 11.331 618.444 11.331C618.606 11.331 618.93 11.169 618.93 10.845ZM590.247 40.791L589.923 38.201C590.571 38.363 591.057 38.363 591.544 38.363C592.192 38.363 592.678 38.363 593.002 38.039C593.488 37.878 593.812 37.554 593.974 37.23C594.136 36.906 594.461 36.259 594.785 35.126C594.947 34.964 594.947 34.802 595.109 34.478L588.789 17.806H591.868L595.271 27.356C595.757 28.489 596.081 29.784 596.567 31.241C596.891 29.946 597.215 28.651 597.702 27.356L601.267 17.806H604.022L597.702 34.64C597.053 36.421 596.567 37.716 596.081 38.363C595.595 39.334 595.109 39.982 594.461 40.468C593.812 40.953 593.002 41.115 592.03 41.115C591.544 41.115 590.895 40.953 590.247 40.791ZM575.501 26.223C575.501 28.327 575.987 29.784 576.797 30.917C577.607 31.888 578.742 32.374 579.876 32.374C581.172 32.374 582.307 31.888 583.117 30.755C584.089 29.784 584.413 28.165 584.413 25.899C584.413 23.795 584.089 22.176 583.117 21.205C582.307 20.072 581.172 19.586 580.038 19.586C578.904 19.586 577.769 20.234 576.797 21.205C575.987 22.338 575.501 23.957 575.501 26.223ZM572.908 40.791V17.806H575.501V19.91C576.149 19.101 576.797 18.453 577.445 17.968C578.255 17.644 579.228 17.32 580.362 17.32C581.659 17.32 582.955 17.806 584.089 18.453C585.062 19.262 586.034 20.234 586.52 21.529C587.006 22.824 587.33 24.28 587.33 25.899C587.33 27.68 587.006 29.137 586.358 30.593C585.872 31.888 584.9 32.86 583.765 33.669C582.631 34.316 581.334 34.64 580.038 34.64C579.228 34.64 578.255 34.478 577.607 34.155C576.797 33.669 576.149 33.183 575.663 32.698V40.791H572.908ZM556.703 17.806H570.153V20.072H564.967V34.316H562.05V20.072H556.703V17.806ZM541.146 11.655H543.09C542.928 12.95 542.442 13.921 541.632 14.568C540.822 15.378 539.687 15.701 538.391 15.701C537.095 15.701 535.96 15.378 535.15 14.568C534.34 13.921 533.854 12.95 533.691 11.655H535.636C535.798 12.302 536.122 12.788 536.608 13.111C536.932 13.597 537.581 13.759 538.391 13.759C539.201 13.759 539.849 13.597 540.174 13.273C540.66 12.788 540.984 12.302 541.146 11.655ZM531.423 17.806H534.178V30.432L542.118 17.806H545.035V34.316H542.28V21.691L534.34 34.316H531.423V17.806ZM513.435 17.806H516.19V30.432L524.13 17.806H527.209V34.316H524.293V21.691L516.514 34.316H513.435V17.806ZM499.337 17.806H502.254V24.928C503.064 24.928 503.712 24.766 504.036 24.442C504.522 24.119 505.008 22.986 505.657 21.367C506.305 20.072 506.629 19.262 506.953 18.777C507.439 18.453 507.763 18.129 508.249 17.968C508.736 17.806 509.384 17.806 510.356 17.806H511.004V20.072H510.194C509.384 20.072 508.898 20.234 508.736 20.396C508.574 20.557 508.249 21.205 507.763 22.5C507.277 23.471 506.953 24.28 506.629 24.604C506.143 25.09 505.657 25.414 504.846 25.899C506.143 26.223 507.277 27.356 508.574 29.137L511.653 34.316H508.412L505.495 29.298C504.846 28.165 504.36 27.518 503.874 27.194C503.388 26.87 502.902 26.709 502.254 26.709V34.316H499.337V17.806ZM494.151 28.327L497.068 28.651C496.744 30.593 495.934 32.05 494.637 33.183C493.503 34.155 491.882 34.64 490.1 34.64C487.831 34.64 486.049 33.993 484.59 32.536C483.132 31.079 482.483 28.813 482.483 26.061C482.483 24.28 482.808 22.824 483.456 21.367C483.942 20.072 484.914 19.101 486.049 18.453C487.345 17.644 488.641 17.32 490.1 17.32C491.882 17.32 493.341 17.806 494.475 18.777C495.61 19.586 496.42 20.881 496.744 22.662L493.989 22.986C493.827 21.852 493.341 21.043 492.693 20.557C491.882 19.91 491.234 19.748 490.262 19.748C488.803 19.748 487.669 20.234 486.697 21.205C485.886 22.176 485.4 23.795 485.4 26.061C485.4 28.327 485.886 29.946 486.697 30.917C487.507 31.888 488.641 32.374 490.1 32.374C491.234 32.374 492.044 32.05 492.855 31.403C493.503 30.755 493.989 29.622 494.151 28.327ZM465.63 17.806H468.385V24.604H476.325V17.806H479.08V34.316H476.325V27.032H468.385V34.316H465.63V17.806ZM447.642 17.806H450.559V30.432L458.338 17.806H461.417V34.316H458.662V21.691L450.721 34.316H447.642V17.806ZM429.979 17.806H432.896V24.604H440.674V17.806H443.429V34.316H440.674V27.032H432.896V34.316H429.979V17.806ZM412.639 17.806H425.766V34.316H423.011V20.072H415.394V28.327C415.394 30.27 415.394 31.565 415.232 32.212C415.232 32.86 414.746 33.345 414.26 33.831C413.612 34.155 412.802 34.478 411.829 34.478C411.181 34.478 410.371 34.478 409.56 34.316V32.05H410.857C411.343 32.05 411.829 31.888 411.991 31.888C412.315 31.727 412.477 31.565 412.477 31.241C412.639 30.917 412.639 30.108 412.639 28.651V17.806ZM396.596 24.442H405.833C405.833 22.986 405.347 22.014 404.861 21.367C403.889 20.234 402.754 19.748 401.296 19.748C399.999 19.748 399.027 20.072 398.055 21.043C397.245 21.852 396.758 22.986 396.596 24.442ZM405.833 28.975L408.75 29.298C408.264 31.079 407.454 32.374 406.157 33.345C405.023 34.316 403.403 34.64 401.458 34.64C399.027 34.64 397.083 33.993 395.624 32.536C394.328 30.917 393.517 28.813 393.517 26.223C393.517 23.471 394.328 21.205 395.786 19.748C397.083 18.129 399.027 17.32 401.296 17.32C403.565 17.32 405.347 18.129 406.806 19.586C408.102 21.205 408.912 23.309 408.912 26.061C408.912 26.223 408.912 26.385 408.912 26.709H396.434C396.596 28.651 397.083 29.946 398.055 30.917C398.865 31.888 400.162 32.374 401.458 32.374C402.43 32.374 403.403 32.212 404.051 31.565C404.861 31.079 405.347 30.108 405.833 28.975ZM376.664 17.806H379.581V20.881C379.581 22.176 379.581 23.147 379.743 23.795C379.905 24.442 380.391 24.928 380.877 25.414C381.526 25.899 382.336 26.061 383.308 26.061C384.281 26.061 385.739 25.737 387.36 25.252V17.806H390.276V34.316H387.36V27.68C385.739 28.165 384.119 28.489 382.498 28.489C381.364 28.489 380.229 28.165 379.257 27.518C378.285 26.87 377.636 26.061 377.15 25.09C376.826 24.28 376.664 23.147 376.664 22.014V17.806ZM362.404 26.061C362.404 28.165 362.89 29.784 363.862 30.755C364.834 31.888 365.969 32.374 367.427 32.374C368.724 32.374 370.02 31.888 370.83 30.755C371.803 29.784 372.289 28.165 372.289 25.899C372.289 23.957 371.803 22.338 370.83 21.367C369.858 20.234 368.724 19.748 367.427 19.748C365.969 19.748 364.834 20.234 363.862 21.367C362.89 22.338 362.404 23.957 362.404 26.061ZM359.649 26.061C359.649 22.986 360.459 20.719 362.08 19.262C363.538 17.968 365.321 17.32 367.427 17.32C369.696 17.32 371.479 18.129 372.937 19.586C374.395 21.043 375.206 23.147 375.206 25.737C375.206 28.003 374.882 29.622 374.233 30.917C373.585 32.05 372.613 33.021 371.316 33.669C370.182 34.316 368.886 34.64 367.427 34.64C364.997 34.64 363.214 33.993 361.755 32.536C360.297 30.917 359.649 28.813 359.649 26.061ZM342.958 17.806H345.712V24.604H353.491V17.806H356.408V34.316H353.491V27.032H345.712V34.316H342.958V17.806ZM331.452 17.806V24.928C332.424 24.928 333.072 24.766 333.397 24.442C333.883 24.119 334.369 22.986 335.017 21.367C335.665 19.748 336.313 18.777 336.8 18.453C337.286 17.968 338.096 17.806 339.23 17.806H340.203V20.072H339.555C338.744 20.072 338.258 20.234 338.096 20.396C337.772 20.557 337.448 21.205 336.962 22.5C336.638 23.471 336.313 24.28 335.827 24.604C335.503 25.09 335.017 25.414 334.207 25.899C335.503 26.223 336.638 27.356 337.772 29.137L340.851 34.316H337.772L334.693 29.298C334.207 28.165 333.559 27.518 333.235 27.194C332.748 26.87 332.1 26.709 331.452 26.709V34.316H328.697V26.709C328.049 26.709 327.401 26.87 327.077 27.194C326.59 27.518 325.942 28.165 325.456 29.298L322.377 34.316H319.298L322.377 29.137C323.511 27.356 324.646 26.223 325.942 25.899C325.132 25.414 324.484 25.09 324.16 24.604C323.836 24.119 323.349 22.986 322.701 21.367C322.377 20.719 322.215 20.396 321.891 20.234C321.729 20.072 321.243 20.072 320.757 20.072C320.595 20.072 320.27 20.072 319.946 20.072V17.806H320.27C321.405 17.806 322.215 17.806 322.539 17.968C323.025 18.129 323.511 18.291 323.836 18.777C324.16 19.101 324.646 20.072 325.132 21.367C325.78 22.986 326.428 23.957 326.752 24.442C327.077 24.766 327.725 24.928 328.697 24.928V17.806H331.452ZM306.01 24.442H315.409C315.247 22.986 314.923 22.014 314.275 21.367C313.464 20.234 312.168 19.748 310.872 19.748C309.575 19.748 308.441 20.072 307.468 21.043C306.658 21.852 306.172 22.986 306.01 24.442ZM315.247 28.975L318.164 29.298C317.84 31.079 316.867 32.374 315.733 33.345C314.437 34.316 312.816 34.64 310.872 34.64C308.441 34.64 306.658 33.993 305.2 32.536C303.741 30.917 303.093 28.813 303.093 26.223C303.093 23.471 303.741 21.205 305.2 19.748C306.658 18.129 308.441 17.32 310.709 17.32C312.978 17.32 314.761 18.129 316.219 19.586C317.678 21.205 318.326 23.309 318.326 26.061C318.326 26.223 318.326 26.385 318.326 26.709H305.848C306.01 28.651 306.496 29.946 307.468 30.917C308.441 31.888 309.575 32.374 310.872 32.374C312.006 32.374 312.816 32.212 313.626 31.565C314.275 31.079 314.923 30.108 315.247 28.975ZM288.671 26.223C288.671 28.327 289.157 29.784 289.967 30.917C290.777 31.888 291.912 32.374 293.046 32.374C294.342 32.374 295.477 31.888 296.287 30.755C297.259 29.784 297.583 28.165 297.583 25.899C297.583 23.795 297.259 22.176 296.287 21.205C295.477 20.072 294.504 19.586 293.208 19.586C292.074 19.586 290.939 20.234 290.129 21.205C289.157 22.338 288.671 23.957 288.671 26.223ZM286.078 40.791V17.806H288.671V19.91C289.319 19.101 289.967 18.453 290.777 17.968C291.425 17.644 292.398 17.32 293.532 17.32C294.991 17.32 296.125 17.806 297.259 18.453C298.394 19.262 299.204 20.234 299.69 21.529C300.338 22.824 300.5 24.28 300.5 25.899C300.5 27.68 300.176 29.137 299.69 30.593C299.042 31.888 298.069 32.86 296.935 33.669C295.801 34.316 294.666 34.64 293.37 34.64C292.398 34.64 291.587 34.478 290.777 34.155C289.967 33.669 289.481 33.183 288.995 32.698V40.791H286.078ZM270.359 24.442H279.596C279.596 22.986 279.11 22.014 278.623 21.367C277.651 20.234 276.517 19.748 275.058 19.748C273.762 19.748 272.79 20.072 271.817 21.043C271.007 21.852 270.521 22.986 270.359 24.442ZM279.596 28.975L282.513 29.298C282.026 31.079 281.216 32.374 279.92 33.345C278.785 34.316 277.165 34.64 275.22 34.64C272.79 34.64 270.845 33.993 269.386 32.536C268.09 30.917 267.28 28.813 267.28 26.223C267.28 23.471 268.09 21.205 269.549 19.748C270.845 18.129 272.79 17.32 275.058 17.32C277.327 17.32 279.11 18.129 280.568 19.586C281.864 21.205 282.675 23.309 282.675 26.061C282.675 26.223 282.675 26.385 282.675 26.709H270.197C270.359 28.651 270.845 29.946 271.817 30.917C272.627 31.888 273.924 32.374 275.22 32.374C276.193 32.374 277.165 32.212 277.813 31.565C278.623 31.079 279.272 30.108 279.596 28.975ZM262.256 25.899C262.256 24.28 261.932 22.824 261.122 21.691C260.15 20.557 259.015 20.072 257.557 20.072C256.098 20.072 254.802 20.719 253.992 21.852C253.181 22.986 252.695 24.604 252.695 26.547C252.695 28.489 253.181 29.946 254.154 30.917C254.964 31.888 256.26 32.374 257.557 32.374C259.015 32.374 260.15 31.888 260.96 30.593C261.77 29.46 262.256 28.003 262.256 25.899ZM262.418 10.845H264.849C264.687 11.978 264.525 12.788 264.201 13.273C263.715 13.597 263.229 13.921 262.742 14.083C262.094 14.244 260.96 14.244 259.177 14.244C256.747 14.244 255.288 14.568 254.316 14.892C253.505 15.378 253.019 16.187 252.533 17.158C252.209 18.129 252.047 19.424 251.885 20.881C252.695 19.91 253.505 19.101 254.478 18.453C255.45 17.968 256.422 17.806 257.719 17.806C259.825 17.806 261.608 18.453 263.066 19.91C264.525 21.529 265.173 23.471 265.173 26.061C265.173 28.003 264.849 29.622 264.201 30.755C263.391 32.05 262.58 33.021 261.608 33.669C260.636 34.316 259.177 34.64 257.557 34.64C255.612 34.64 253.992 34.316 252.857 33.345C251.885 32.536 251.075 31.241 250.427 29.946C249.778 28.489 249.454 26.061 249.454 22.5C249.454 18.129 250.264 15.216 251.723 13.759C253.181 12.14 255.45 11.493 258.529 11.493C260.474 11.493 261.608 11.331 261.932 11.331C262.094 11.331 262.256 11.169 262.418 10.845ZM242.972 26.061C242 26.385 240.541 26.87 238.435 27.032C237.3 27.194 236.49 27.518 236.004 27.68C235.518 27.842 235.032 28.165 234.87 28.489C234.546 28.975 234.383 29.46 234.383 29.946C234.383 30.593 234.708 31.241 235.356 31.727C235.842 32.212 236.652 32.536 237.787 32.536C238.921 32.536 239.893 32.212 240.703 31.727C241.514 31.403 242.162 30.755 242.648 29.784C242.81 29.298 242.972 28.327 242.972 27.032V26.061ZM243.296 32.212C242.162 33.183 241.19 33.831 240.217 34.155C239.245 34.478 238.273 34.64 237.138 34.64C235.356 34.64 233.897 34.316 232.925 33.345C231.953 32.536 231.467 31.403 231.467 29.946C231.467 29.137 231.629 28.489 231.953 27.68C232.277 27.032 232.925 26.547 233.411 26.061C234.059 25.737 234.708 25.414 235.518 25.252C236.004 25.09 236.814 24.928 237.949 24.766C240.217 24.442 242 24.119 242.972 23.795C242.972 23.471 242.972 23.147 242.972 23.147C242.972 22.014 242.81 21.205 242.324 20.719C241.514 20.072 240.379 19.748 239.083 19.748C237.625 19.748 236.652 19.91 236.004 20.396C235.518 20.881 235.032 21.691 234.708 22.824L231.953 22.5C232.115 21.367 232.601 20.396 233.087 19.586C233.735 18.939 234.546 18.291 235.68 17.968C236.814 17.644 237.949 17.32 239.407 17.32C240.866 17.32 242 17.482 242.972 17.806C243.782 18.291 244.431 18.615 244.917 19.101C245.241 19.586 245.565 20.234 245.727 21.043C245.889 21.529 245.889 22.338 245.889 23.633V27.356C245.889 29.946 245.889 31.727 246.051 32.374C246.213 33.021 246.375 33.669 246.699 34.316H243.782C243.458 33.831 243.296 33.021 243.296 32.212ZM214.613 17.806H217.53V24.604H225.309V17.806H228.226V34.316H225.309V27.032H217.53V34.316H214.613V17.806Z" fill="#595D62"/>
</g>
</g>
<defs>
<clipPath id="clip0_702_3666">
<rect width="806" height="180" fill="white"/>
</clipPath>
</defs>
</svg>
