<?xml version="1.0" encoding="UTF-8"?>
<svg id="Layer_1" data-name="Layer 1" xmlns="http://www.w3.org/2000/svg" viewBox="0 0 557.37 116.62">
  <defs>
    <style>
      .cls-1 {
        fill: #5b5f64;
      }
    </style>
  </defs>
  <path class="cls-1" d="m72.05,43.97c-1.37,4.99-2.76,10.4-4.34,16.64-2.62,10.44-7.57,37.47-9.07,55.33-.79.36-3.12.68-4.23.68-3.62,0-7.85-2.23-8.1-7.96-.36-7.1,3.8-33.35,10.08-57.66.21-.75.39-1.5.61-2.26-8.07,2.76-15.56,5.7-22.3,8.57-2.51,11.04-5.85,27.93-7.1,44.68-.25.25-2.62.61-3.8.61-4.31,0-7.31-2.87-7.28-7.74.04-9.54,2.15-22.05,3.98-31.09-9.07,4.41-15.88,8.25-19.72,10.54-.68-1.29-.9-3.37-.71-4.37.21-1.44,1.07-4.59,4.52-6.99,5.63-3.88,11.79-7.67,18.57-11.3,3.48-14.2,8.21-28.62,12.16-37.15,2.55-5.53,5.81-7.6,11.4-7.6,1.47,0,3.48.36,4.55.68-5.06,10.97-9.79,24.03-13.44,37,6.92-3.02,14.41-5.88,22.59-8.57,3.98-13.84,7.53-23.74,10.87-30.01,2.08-3.94,5.53-5.53,8.64-5.88,2.76-.32,5.16.04,7.31.61-5.16,12.33-8.57,21.48-11.51,30.83,5.59-1.47,11.47-2.9,17.68-4.2,3.37-.71,15.52-2.87,17.75,8.92-13.66,1.37-26.86,4.2-39.08,7.67h-.02Z"/>
  <path class="cls-1" d="m276.72,28.73c-4.2,0-8.39,3.84-8.39,8.25,0,3.2,2.27,5.48,5.41,5.48,4.2,0,8.47-3.91,8.47-8.25.07-3.27-2.35-5.48-5.48-5.48Zm-28.94,3.77c-2.35,11.59-9.89,48.07-9.89,48.07-.5,1.99-3.2,12.51,7.83,12.51h1.64l14.43-69.98s-11.66-2.06-14.01,9.39h0Zm17.14,24.33c-2.42,11.31-4.91,23.75-4.91,23.75-.5,1.99-3.2,12.51,7.89,12.51h1.64l9.39-45.51c-.5.07-11.59-1.92-14.01,9.24h0Zm-31.86,6.27c0,9.68-3.91,18.84-10.74,24.4-4.27,3.56-10.03,5.69-16.43,5.69-10.24,0-17.57-5.54-17.57-16.28,0-9.6,3.91-18.78,10.74-24.25,4.33-3.56,10.03-5.69,16.49-5.69,10.1-.07,17.49,5.33,17.49,16.14h.01Zm-12.37.06c0-4.77-1.85-8.18-6.68-8.18-3.06,0-5.76,1.77-7.75,4.33-3.77,4.77-5.69,12.37-5.69,17.57,0,4.83,1.92,8.25,6.83,8.25,3.06,0,5.54-1.77,7.6-4.33,3.77-4.83,5.69-12.51,5.69-17.64Zm230.22-33.71c-1.85,8.54-10.6,51.13-10.6,51.13-.5,2.49-2.98,12.51,7.83,12.51h1.64l14.93-72.62c-2.85-.42-11.81-.42-13.8,8.96h0Zm42.95,17.44c-5.83,0-10.81,2.63-13.94,6.19,0,0-.42-8.89-12.09-5.33,2.13,6.19.92,8.39-1.42,20.84l-2.49,12.09c-.42,2.06-3.2,12.51,7.83,12.51h1.64l4.33-20.98c1.21-5.62,3.48-16.28,11.95-16.28,4.2,0,6.4,2.63,5.05,9.1l-3.2,15.65c-.5,1.99-3.2,12.51,7.83,12.51h1.64l5.91-28.66c2.63-12.3-3.77-17.64-13.01-17.64h-.02ZM177.23,30.01c-.5,2.63-1.77,8.47-3.77,17.99l-20.34,4.06,5.97-28.88c-1.85-.35-11.95-1.14-13.94,9.31-.64,3.27-9.95,48.07-9.95,48.07-.5,2.35-3.2,12.51,7.83,12.51h1.71l5.91-28.38,20.34-4.06c-1.99,9.74-4.12,19.92-4.12,19.92-.5,1.99-3.2,12.51,7.83,12.51h1.64l15.01-72.62c-.07,0-11.66-2.06-14.08,9.53l-.02.03Zm366.48,16.86c-5.83,0-10.81,2.63-13.94,6.19,0,0-.42-8.89-12.09-5.33,2.13,6.19.92,8.39-1.42,20.84l-2.49,12.09c-.42,2.06-3.2,12.51,7.89,12.51h1.64l4.33-20.98c1.21-5.62,3.48-16.28,11.95-16.28,4.2,0,6.4,2.63,5.05,9.1l-3.2,15.65c-.5,1.99-3.2,12.51,7.83,12.51h1.64l5.91-28.66c2.56-12.3-3.84-17.64-13.09-17.64h-.01Zm-229.57,8.47c-.64-.35-2.21-.71-3.56-.71-9.39,0-16.99,11.52-16.99,22.19,0,5.19,2.49,8.1,6.54,8.1,2.92,0,4.98-1.14,6.62-2.92,1.64-1.92,2.77-4.77,3.48-8.1l3.91-18.57h0Zm18.63-32.2l-14.43,69.98h-1.64c-3.7,0-6.9-1.35-7.97-4.69-2.56,2.7-6.9,4.69-12.37,4.69-9.24,0-15.29-6.19-15.29-16.01,0-16.01,12.51-30.23,30.08-30.23,1.77,0,3.56.14,4.56.42-.14.5,1.92-9.03,2.98-14.58,2.27-11.31,13.09-9.68,14.08-9.6h0Zm42.68,27.97l-8.68,42.03h-1.64c-3.7,0-6.9-1.29-7.97-4.69-2.49,2.7-6.9,4.69-12.37,4.69-9.24,0-14.8-6.04-14.8-15.93,0-16.86,13.3-30.37,30.08-30.37,5.76.07,10.66,1.71,15.36,4.27h.01Zm-12.87,4.2c-.79-.35-1.64-.71-2.77-.71-10.66,0-17.43,12.87-17.43,22.26,0,5.19,2.06,7.97,6.19,7.97,2.92,0,5.12-1.14,6.76-2.92,1.64-1.92,2.7-4.77,3.41-8.1l3.84-18.49h0Zm49.22,2.06c2.49-11.59,14.22-9.6,14.22-9.6l-8.25,38.76c-1.64,7.83-3.84,13.3-7.47,17.36-4.41,4.91-11.24,7.89-19.99,7.89-10.18,0-17.78-4.56-17.78-12.3,0-5.19,3.27-8.96,10.39-10.66-1.85-2.06-3.06-4.69-3.06-7.97,0-2.27.5-5.05,1.14-7.75,0,0,.5-2.13,3.2-14.93,2.77-12.8,14.37-10.45,14.37-10.45l-5.41,25.75c-.5,2.21-2.85,10.66,4.77,10.66,8.6,0,10.6-10.66,11.74-16.28-.14,0-.35,1.14,2.13-10.45h0Zm-6.83,31.43c-2.35,2.13-6.54,3.2-11.24,3.77-6.62.79-11.1,1.85-11.1,6.47,0,3.56,3.56,5.54,7.75,5.54,3.41,0,6.54-1.21,8.82-3.41,2.35-2.27,4.06-5.54,4.91-9.1l.85-3.27h.01Z"/>
</svg>