<?xml version="1.0" standalone="no"?>
<!DOCTYPE svg PUBLIC "-//W3C//DTD SVG 20010904//EN"
 "http://www.w3.org/TR/2001/REC-SVG-20010904/DTD/svg10.dtd">
<svg version="1.0" xmlns="http://www.w3.org/2000/svg"
 width="495.000000pt" height="202.000000pt" viewBox="0 0 495.000000 202.000000"
 preserveAspectRatio="xMidYMid meet">

<g transform="translate(0.000000,202.000000) scale(0.100000,-0.100000)"
fill="#595d62" stroke="none">
<path d="M897 1995 c-222 -85 -288 -374 -124 -543 64 -67 127 -95 222 -100 98
-5 170 19 239 79 172 152 138 433 -66 544 -46 25 -66 30 -143 32 -60 2 -102
-2 -128 -12z"/>
<path d="M2380 1600 c-72 -72 -1 -192 95 -160 44 15 65 44 65 93 0 55 -35 87
-95 87 -31 0 -51 -6 -65 -20z"/>
<path d="M3980 1150 l0 -471 81 3 80 3 2 190 c2 182 3 192 27 235 63 113 217
118 272 9 15 -29 18 -63 18 -236 l0 -203 86 0 87 0 -5 223 c-6 257 -19 312
-90 379 -91 88 -282 88 -362 -1 -15 -16 -21 -18 -28 -9 -4 7 -8 88 -8 181 l0
167 -80 0 -80 0 0 -470z"/>
<path d="M4789 1607 c-89 -69 -10 -207 94 -163 42 17 57 41 57 91 0 52 -36 85
-92 85 -24 0 -50 -6 -59 -13z"/>
<path d="M2837 1346 c-58 -17 -120 -57 -143 -91 -39 -59 -37 -161 4 -210 46
-55 103 -79 241 -99 99 -15 131 -33 131 -73 0 -30 -30 -59 -75 -72 -53 -14
-137 3 -214 45 -35 19 -64 34 -65 32 -1 -2 -19 -26 -39 -55 l-37 -51 42 -36
c79 -68 210 -98 338 -76 130 22 210 103 210 212 0 127 -76 188 -258 209 -46 5
-96 16 -112 24 -49 25 -46 86 6 105 50 19 147 12 200 -15 l49 -25 40 47 c22
26 40 52 40 57 0 6 -30 26 -66 45 -58 29 -78 34 -155 37 -57 2 -107 -2 -137
-10z"/>
<path d="M3557 1350 c-65 -17 -133 -58 -175 -105 -57 -65 -77 -128 -77 -246 0
-90 2 -100 35 -165 64 -125 169 -180 333 -172 78 3 100 8 144 32 29 16 60 37
70 48 16 18 15 21 -35 70 l-51 52 -40 -22 c-103 -58 -227 -26 -278 72 -26 50
-23 142 7 196 49 87 170 119 260 69 l41 -23 52 53 52 52 -30 25 c-56 46 -111
66 -193 70 -42 2 -94 -1 -115 -6z"/>
<path d="M250 1331 c-87 -27 -174 -104 -213 -189 -30 -67 -30 -199 0 -264 32
-70 103 -141 172 -172 58 -26 65 -26 263 -27 l203 0 5 213 c5 200 6 216 29
258 48 90 108 145 188 175 34 12 1 14 -292 13 -181 0 -341 -3 -355 -7z"/>
<path d="M1147 1316 c75 -35 135 -95 169 -169 28 -61 29 -66 32 -264 l4 -203
199 0 c239 0 281 11 365 94 166 167 107 464 -109 544 -55 21 -74 22 -385 22
l-327 0 52 -24z"/>
<path d="M2360 1010 l0 -330 85 0 85 0 0 330 0 330 -85 0 -85 0 0 -330z"/>
<path d="M4770 1010 l0 -330 80 0 80 0 0 330 0 330 -80 0 -80 0 0 -330z"/>
<path d="M680 482 c0 -210 8 -256 61 -335 59 -90 157 -138 278 -138 62 0 84 4
136 30 74 37 127 92 163 170 25 53 27 65 30 259 l4 202 -336 0 -336 0 0 -188z"/>
</g>
</svg>
