<svg width="211" height="62" viewBox="0 0 211 62" fill="none" xmlns="http://www.w3.org/2000/svg">
<path d="M52.437 48.218C52.437 49.9633 52.6423 51.1953 53.053 51.914C53.4637 52.6327 54.285 53.146 55.517 53.454L55.209 60.692C53.5663 60.9487 52.129 61.1283 50.897 61.231C49.7163 61.3337 48.125 61.385 46.123 61.385C41.7083 61.385 38.7823 60.4097 37.345 58.459C35.9077 56.457 35.189 53.916 35.189 50.836V48.911C33.7003 53.1203 31.5187 56.2517 28.644 58.305C25.8207 60.3583 22.2017 61.385 17.787 61.385C12.6537 61.385 8.778 60.3583 6.16 58.305C3.59333 56.2517 2.31 53.1973 2.31 49.142C2.31 45.8053 3.41367 43.1873 5.621 41.288C7.82833 39.3887 11.242 38.0797 15.862 37.361C11.9607 34.589 8.05933 32.1763 4.158 30.123C7.238 26.2217 10.7543 23.27 14.707 21.268C18.6597 19.2147 23.4593 18.188 29.106 18.188C37.0113 18.188 42.8633 19.9077 46.662 23.347C50.512 26.735 52.437 31.971 52.437 39.055V48.218ZM30.723 31.74C28.105 31.74 25.795 32.1763 23.793 33.049C21.791 33.9217 19.9943 35.2307 18.403 36.976C21.483 36.6167 25.333 36.437 29.953 36.437C31.8523 36.437 33.187 36.206 33.957 35.744C34.727 35.282 35.112 34.6917 35.112 33.973C35.112 33.357 34.727 32.8437 33.957 32.433C33.187 31.971 32.109 31.74 30.723 31.74ZM22.638 48.834C25.5127 48.834 28.105 48.295 30.415 47.217C32.725 46.0877 34.3163 44.6247 35.189 42.828V40.826C33.957 41.442 32.5967 41.9297 31.108 42.289C29.6193 42.597 27.8227 42.905 25.718 43.213L22.946 43.675C20.0713 44.2397 18.634 45.215 18.634 46.601C18.634 48.0897 19.9687 48.834 22.638 48.834ZM78.2482 30.2C78.1969 33.28 78.1712 38.0027 78.1712 44.368C78.1712 52.0167 78.2226 57.5607 78.3252 61H60.1532L60.2302 52.299C60.3329 42.751 60.3842 35.3847 60.3842 30.2C60.3842 25.272 60.3329 18.2907 60.2302 9.256L60.1532 0.939998H78.3252C78.2226 8.22933 78.1712 14.184 78.1712 18.804C78.1712 23.9373 78.1969 27.736 78.2482 30.2ZM109.388 61.77C105.076 61.77 100.687 61.1797 96.2205 59.999C91.8059 58.767 87.6479 56.919 83.7465 54.455L91.8315 43.444C94.1929 45.138 97.0419 46.4727 100.379 47.448C103.715 48.372 106.59 48.834 109.003 48.834C111.313 48.834 113.084 48.526 114.316 47.91C115.599 47.2427 116.241 46.3957 116.241 45.369C116.241 44.5477 115.933 43.906 115.317 43.444C114.701 42.982 113.854 42.751 112.776 42.751C112.108 42.751 111.338 42.7767 110.466 42.828C109.644 42.8793 108.977 42.9307 108.464 42.982C105.794 43.29 103.048 43.444 100.225 43.444C95.6559 43.444 91.9342 42.597 89.0595 40.903C86.2362 39.1577 84.8245 36.3343 84.8245 32.433C84.8245 27.9157 86.9549 24.425 91.2155 21.961C95.4762 19.4457 101.739 18.188 110.004 18.188C114.059 18.188 118.14 18.7783 122.247 19.959C126.405 21.0883 130.075 22.808 133.258 25.118L124.403 34.05C121.477 32.51 118.73 31.432 116.164 30.816C113.648 30.1487 111.107 29.815 108.541 29.815C106.744 29.815 105.204 30.1743 103.921 30.893C102.637 31.6117 101.996 32.433 101.996 33.357C101.996 34.0757 102.252 34.6403 102.766 35.051C103.33 35.4617 104.049 35.667 104.922 35.667C105.794 35.667 107.001 35.59 108.541 35.436C112.288 35.1793 115.086 35.051 116.934 35.051C122.272 35.051 126.405 35.9493 129.331 37.746C132.257 39.5427 133.72 42.289 133.72 45.985C133.72 51.529 131.564 55.5587 127.252 58.074C122.94 60.538 116.985 61.77 109.388 61.77ZM186.463 18.958C186.104 25.426 185.924 32.4073 185.924 39.902C185.924 47.448 186.104 54.4807 186.463 61C183.178 60.846 180.586 60.769 178.686 60.769C176.89 60.769 174.297 60.846 170.909 61L168.676 49.681C167.496 53.7877 165.648 56.842 163.132 58.844C160.617 60.7947 157.691 61.77 154.354 61.77C151.274 61.77 148.605 61.1027 146.346 59.768C144.088 58.382 142.368 56.534 141.187 54.224C140.058 51.914 139.493 49.3217 139.493 46.447V35.359C139.493 28.5317 139.365 23.0647 139.108 18.958H156.433C156.125 26.504 155.971 33.973 155.971 41.365C155.971 43.6237 156.51 45.4203 157.588 46.755C158.718 48.0897 160.129 48.757 161.823 48.757C163.415 48.757 164.801 48.064 165.981 46.678C167.213 45.2407 167.958 43.29 168.214 40.826V39.055C168.317 35.051 168.368 32.279 168.368 30.739C168.368 27.197 168.266 23.27 168.06 18.958H186.463ZM200.039 61.77C197.781 61.77 195.856 60.9743 194.264 59.383C192.673 57.7403 191.877 55.7897 191.877 53.531C191.877 51.2723 192.673 49.3473 194.264 47.756C195.856 46.1647 197.781 45.369 200.039 45.369C202.247 45.369 204.146 46.1903 205.737 47.833C207.38 49.4243 208.201 51.3237 208.201 53.531C208.201 55.7897 207.38 57.7403 205.737 59.383C204.146 60.9743 202.247 61.77 200.039 61.77Z" fill="url(#paint0_linear_240_6912)"/>
<defs>
<linearGradient id="paint0_linear_240_6912" x1="0" y1="5" x2="114.717" y2="141.763" gradientUnits="userSpaceOnUse">
<stop stop-color="#FF2F2F"/>
<stop offset="0.5" stop-color="#FFB319"/>
<stop offset="1" stop-color="#3448F0"/>
</linearGradient>
</defs>
</svg>
