<svg width="22" height="16" viewBox="0 0 22 16" fill="none" xmlns="http://www.w3.org/2000/svg">
<g clip-path="url(#clip0_362_1601)">
<mask id="mask0_362_1601" style="mask-type:luminance" maskUnits="userSpaceOnUse" x="0" y="0" width="22" height="16">
<path d="M0 0H22V16H0V0Z" fill="white"/>
</mask>
<g mask="url(#mask0_362_1601)">
<path fill-rule="evenodd" clip-rule="evenodd" d="M0 0V16H22V0H0Z" fill="#3448F0"/>
<mask id="mask1_362_1601" style="mask-type:luminance" maskUnits="userSpaceOnUse" x="0" y="0" width="22" height="16">
<path fill-rule="evenodd" clip-rule="evenodd" d="M0 0V16H22V0H0Z" fill="white"/>
</mask>
<g mask="url(#mask1_362_1601)">
<mask id="mask2_362_1601" style="mask-type:luminance" maskUnits="userSpaceOnUse" x="0" y="0" width="22" height="16">
<path d="M0 0H22V16H0V0Z" fill="white"/>
</mask>
<g mask="url(#mask2_362_1601)">
<path d="M-2.44922 14.857L2.39194 16.8423L22.1103 2.15857L24.6639 -0.791749L19.487 -1.45532L11.4444 4.87232L4.97082 9.1357L-2.44922 14.857Z" fill="white"/>
<path d="M-1.78516 16.2479L0.68119 17.4L23.7482 -1.06592H20.2852L-1.78516 16.2479Z" fill="#FF4E64"/>
<path d="M24.451 14.857L19.6098 16.8423L-0.108505 2.15857L-2.66211 -0.791749L2.51482 -1.45532L10.5574 4.87232L17.0309 9.1357L24.451 14.857Z" fill="white"/>
<path d="M24.2855 15.8553L21.8191 17.0074L11.9969 9.10122L9.08483 8.21782L-2.9082 -0.781616H0.554836L12.5412 8.00422L15.725 9.06349L24.2855 15.8553Z" fill="#FF4E64"/>
<path fill-rule="evenodd" clip-rule="evenodd" d="M13.5978 -1.33325H8.40341V5.33341H-1.35547V10.6667H8.40341V17.3334H13.5978V10.6667H23.3946V5.33341H13.5978V-1.33325Z" fill="#FF4E64"/>
<mask id="mask3_362_1601" style="mask-type:luminance" maskUnits="userSpaceOnUse" x="-2" y="-2" width="26" height="20">
<path fill-rule="evenodd" clip-rule="evenodd" d="M13.5978 -1.33325H8.40341V5.33341H-1.35547V10.6667H8.40341V17.3334H13.5978V10.6667H23.3946V5.33341H13.5978V-1.33325Z" fill="white"/>
</mask>
<g mask="url(#mask3_362_1601)">
<path d="M8.40341 -1.33329V-2.66663H7.02841V-1.33329H8.40341ZM13.5978 -1.33329H14.9728V-2.66663H13.5978V-1.33329ZM8.40341 5.33337V6.66671H9.77841V5.33337H8.40341ZM-1.35547 5.33337V4.00004H-2.73047V5.33337H-1.35547ZM-1.35547 10.6667H-2.73047V12H-1.35547V10.6667ZM8.40341 10.6667H9.77841V9.33337H8.40341V10.6667ZM8.40341 17.3334H7.02841V18.6667H8.40341V17.3334ZM13.5978 17.3334V18.6667H14.9728V17.3334H13.5978ZM13.5978 10.6667V9.33337H12.2228V10.6667H13.5978ZM23.3946 10.6667V12H24.7696V10.6667H23.3946ZM23.3946 5.33337H24.7696V4.00004H23.3946V5.33337ZM13.5978 5.33337H12.2228V6.66671H13.5978V5.33337ZM8.40341 4.07696e-05H13.5978V-2.66663H8.40341V4.07696e-05ZM9.77841 5.33337V-1.33329H7.02841V5.33337H9.77841ZM-1.35547 6.66671H8.40341V4.00004H-1.35547V6.66671ZM0.0195284 10.6667V5.33337H-2.73047V10.6667H0.0195284ZM8.40341 9.33337H-1.35547V12H8.40341V9.33337ZM9.77841 17.3334V10.6667H7.02841V17.3334H9.77841ZM13.5978 16H8.40341V18.6667H13.5978V16ZM12.2228 10.6667V17.3334H14.9728V10.6667H12.2228ZM23.3946 9.33337H13.5978V12H23.3946V9.33337ZM22.0196 5.33337V10.6667H24.7696V5.33337H22.0196ZM13.5978 6.66671H23.3946V4.00004H13.5978V6.66671ZM12.2228 -1.33329V5.33337H14.9728V-1.33329H12.2228Z" fill="white"/>
</g>
</g>
</g>
</g>
</g>
<defs>
<clipPath id="clip0_362_1601">
<rect width="22" height="16" fill="white"/>
</clipPath>
</defs>
</svg>
