<svg width="22" height="16" viewBox="0 0 22 16" fill="none" xmlns="http://www.w3.org/2000/svg">
<g clip-path="url(#clip0_362_1600)">
<mask id="mask0_362_1600" style="mask-type:luminance" maskUnits="userSpaceOnUse" x="0" y="0" width="22" height="16">
<path d="M0 0H22V16H0V0Z" fill="white"/>
</mask>
<g mask="url(#mask0_362_1600)">
<path fill-rule="evenodd" clip-rule="evenodd" d="M0 0H22V16H0V0Z" fill="white"/>
<path fill-rule="evenodd" clip-rule="evenodd" d="M0 9.77783V11.1112H22V9.77783H0Z" fill="#FF4E64"/>
<path fill-rule="evenodd" clip-rule="evenodd" d="M0 12.2222V13.5555H22V12.2222H0Z" fill="#FF4E64"/>
<path fill-rule="evenodd" clip-rule="evenodd" d="M0 4.88879V6.22213H22V4.88879H0Z" fill="#FF4E64"/>
<path fill-rule="evenodd" clip-rule="evenodd" d="M0 14.6666V16H22V14.6666H0Z" fill="#FF4E64"/>
<path fill-rule="evenodd" clip-rule="evenodd" d="M0 7.33337V8.66671H22V7.33337H0Z" fill="#FF4E64"/>
<path fill-rule="evenodd" clip-rule="evenodd" d="M0 0V1.33333H22V0H0Z" fill="#FF4E64"/>
<path fill-rule="evenodd" clip-rule="evenodd" d="M0 2.44446V3.77779H22V2.44446H0Z" fill="#FF4E64"/>
<path d="M0 0H13.75V8.66667H0V0Z" fill="#3448F0"/>
<path fill-rule="evenodd" clip-rule="evenodd" d="M1.18396 1.95914L0.684916 2.2984L0.853397 1.69466L0.410156 1.31205H0.989089L1.18326 0.819336L1.41094 1.31205H1.90447L1.51669 1.69466L1.66681 2.2984L1.18396 1.95914ZM3.93396 1.95914L3.43492 2.2984L3.6034 1.69466L3.16016 1.31205H3.73909L3.93326 0.819336L4.16094 1.31205H4.65447L4.26669 1.69466L4.41681 2.2984L3.93396 1.95914ZM6.18492 2.2984L6.68396 1.95914L7.16681 2.2984L7.01666 1.69466L7.40448 1.31205H6.91092L6.68326 0.819336L6.48909 1.31205H5.91016L6.3534 1.69466L6.18492 2.2984ZM9.43398 1.95914L8.93493 2.2984L9.10343 1.69466L8.66013 1.31205H9.23907L9.43329 0.819336L9.66092 1.31205H10.1545L9.76666 1.69466L9.91681 2.2984L9.43398 1.95914ZM0.684916 4.96506L1.18396 4.62581L1.66681 4.96506L1.51669 4.36132L1.90447 3.97872H1.41094L1.18326 3.486L0.989089 3.97872H0.410156L0.853397 4.36132L0.684916 4.96506ZM3.93396 4.62581L3.43492 4.96506L3.6034 4.36132L3.16016 3.97872H3.73909L3.93326 3.486L4.16094 3.97872H4.65447L4.26669 4.36132L4.41681 4.96506L3.93396 4.62581ZM6.18492 4.96506L6.68396 4.62581L7.16681 4.96506L7.01666 4.36132L7.40448 3.97872H6.91092L6.68326 3.486L6.48909 3.97872H5.91016L6.3534 4.36132L6.18492 4.96506ZM9.43398 4.62581L8.93493 4.96506L9.10343 4.36132L8.66013 3.97872H9.23907L9.43329 3.486L9.66092 3.97872H10.1545L9.76666 4.36132L9.91681 4.96506L9.43398 4.62581ZM0.684916 7.63174L1.18396 7.29247L1.66681 7.63174L1.51669 7.028L1.90447 6.64538H1.41094L1.18326 6.15267L0.989089 6.64538H0.410156L0.853397 7.028L0.684916 7.63174ZM3.93396 7.29247L3.43492 7.63174L3.6034 7.028L3.16016 6.64538H3.73909L3.93326 6.15267L4.16094 6.64538H4.65447L4.26669 7.028L4.41681 7.63174L3.93396 7.29247ZM6.18492 7.63174L6.68396 7.29247L7.16681 7.63174L7.01666 7.028L7.40448 6.64538H6.91092L6.68326 6.15267L6.48909 6.64538H5.91016L6.3534 7.028L6.18492 7.63174ZM9.43398 7.29247L8.93493 7.63174L9.10343 7.028L8.66013 6.64538H9.23907L9.43329 6.15267L9.66092 6.64538H10.1545L9.76666 7.028L9.91681 7.63174L9.43398 7.29247ZM11.6849 2.2984L12.184 1.95914L12.6668 2.2984L12.5167 1.69466L12.9045 1.31205H12.4109L12.1833 0.819336L11.9891 1.31205H11.4101L11.8534 1.69466L11.6849 2.2984ZM12.184 4.62581L11.6849 4.96506L11.8534 4.36132L11.4101 3.97872H11.9891L12.1833 3.486L12.4109 3.97872H12.9045L12.5167 4.36132L12.6668 4.96506L12.184 4.62581ZM11.6849 7.63174L12.184 7.29247L12.6668 7.63174L12.5167 7.028L12.9045 6.64538H12.4109L12.1833 6.15267L11.9891 6.64538H11.4101L11.8534 7.028L11.6849 7.63174ZM2.55896 3.29248L2.05992 3.63173L2.2284 3.02799L1.78516 2.64538H2.36409L2.55826 2.15267L2.78594 2.64538H3.27947L2.89169 3.02799L3.04181 3.63173L2.55896 3.29248ZM4.80992 3.63173L5.30896 3.29248L5.79181 3.63173L5.64169 3.02799L6.02947 2.64538H5.53594L5.30826 2.15267L5.11409 2.64538H4.53516L4.9784 3.02799L4.80992 3.63173ZM8.05898 3.29248L7.55993 3.63173L7.72843 3.02799L7.28513 2.64538H7.86408L8.05829 2.15267L8.28592 2.64538H8.77948L8.39166 3.02799L8.54181 3.63173L8.05898 3.29248ZM2.05992 6.2984L2.55896 5.95914L3.04181 6.2984L2.89169 5.69466L3.27947 5.31205H2.78594L2.55826 4.81934L2.36409 5.31205H1.78516L2.2284 5.69466L2.05992 6.2984ZM5.30896 5.95914L4.80992 6.2984L4.9784 5.69466L4.53516 5.31205H5.11409L5.30826 4.81934L5.53594 5.31205H6.02947L5.64169 5.69466L5.79181 6.2984L5.30896 5.95914ZM7.55993 6.2984L8.05898 5.95914L8.54181 6.2984L8.39166 5.69466L8.77948 5.31205H8.28592L8.05829 4.81934L7.86408 5.31205H7.28513L7.72843 5.69466L7.55993 6.2984ZM10.809 3.29248L10.3099 3.63173L10.4784 3.02799L10.0351 2.64538H10.6141L10.8083 2.15267L11.0359 2.64538H11.5295L11.1417 3.02799L11.2918 3.63173L10.809 3.29248ZM10.3099 6.2984L10.809 5.95914L11.2918 6.2984L11.1417 5.69466L11.5295 5.31205H11.0359L10.8083 4.81934L10.6141 5.31205H10.0351L10.4784 5.69466L10.3099 6.2984Z" fill="white"/>
</g>
</g>
<defs>
<clipPath id="clip0_362_1600">
<rect width="22" height="16" fill="white"/>
</clipPath>
</defs>
</svg>
