<svg fill="#3448f0" xmlns="http://www.w3.org/2000/svg"  viewBox="0 0 48 48" width="100px" height="100px"><path d="M 15.720703 3 C 13.630703 3 11.880469 4.6207031 11.730469 6.7207031 L 11.349609 12.039062 C 14.459609 12.509063 18.89 13 24 13 C 29.11 13 33.540391 12.509063 36.650391 12.039062 L 36.269531 6.7207031 C 36.119531 4.6207031 34.369297 3 32.279297 3 L 15.720703 3 z M 42.525391 13.994141 A 1.50015 1.50015 0 0 0 42.125 14.046875 C 42.125 14.046875 34.583282 16 24 16 C 13.416718 16 5.875 14.046875 5.875 14.046875 A 1.5007322 1.5007322 0 1 0 5.125 16.953125 C 5.125 16.953125 6.9534463 17.41584 10 17.900391 L 10 21.363281 C 9.6969752 21.441201 9.6732117 21.355781 9.3320312 21.525391 C 8.2210098 22.077754 7 23.494317 7 25.5 C 7 27.505683 8.2210098 28.922246 9.3320312 29.474609 C 9.8107692 29.712622 9.8893553 29.629775 10.269531 29.701172 C 10.399881 30.192802 10.53732 30.717952 10.853516 31.865234 C 11.289545 33.447319 11.761148 35.135197 12.095703 36.027344 C 13.626968 40.110716 14.931588 42.617146 16.875 44.171875 C 18.818412 45.726604 21.159091 46 24 46 C 26.840909 46 29.181588 45.726604 31.125 44.171875 C 33.068412 42.617146 34.373032 40.110716 35.904297 36.027344 C 36.238852 35.135197 36.710455 33.447319 37.146484 31.865234 C 37.46268 30.717952 37.600119 30.192802 37.730469 29.701172 C 38.110645 29.629772 38.189231 29.712622 38.667969 29.474609 C 39.77899 28.922246 41 27.505683 41 25.5 C 41 23.494317 39.77899 22.077754 38.667969 21.525391 C 38.326788 21.355767 38.303025 21.441204 38 21.363281 L 38 17.900391 C 41.046554 17.41584 42.875 16.953125 42.875 16.953125 A 1.50015 1.50015 0 0 0 42.525391 13.994141 z M 13 18.322266 C 16.037756 18.694981 19.786251 19 24 19 C 28.213749 19 31.962244 18.694981 35 18.322266 L 35 22.5 A 1.50015 1.50015 0 0 0 36.507812 24 C 36.507812 24 36.943053 24.01755 37.332031 24.210938 C 37.72101 24.404325 38 24.488683 38 25.5 C 38 26.511317 37.72101 26.595675 37.332031 26.789062 C 36.943053 26.98245 36.507812 27 36.507812 27 A 1.50015 1.50015 0 0 0 35.048828 28.119141 C 35.048828 28.119141 34.684377 29.506444 34.253906 31.068359 C 33.823436 32.630275 33.295148 34.440803 33.095703 34.972656 C 32.335858 36.998911 31.64946 38.503118 31 39.621094 L 31 37.5 C 31 35.585045 29.414955 34 27.5 34 L 20.5 34 C 18.585045 34 17 35.585045 17 37.5 L 17 39.621094 C 16.35054 38.503118 15.664142 36.998911 14.904297 34.972656 C 14.704852 34.440803 14.176564 32.630275 13.746094 31.068359 C 13.315623 29.506444 12.951172 28.119141 12.951172 28.119141 A 1.50015 1.50015 0 0 0 11.492188 27 C 11.492188 27 11.056947 26.98245 10.667969 26.789062 C 10.27899 26.595675 10 26.511317 10 25.5 C 10 24.488683 10.27899 24.404325 10.667969 24.210938 C 11.056947 24.01755 11.492186 24 11.492188 24 A 1.50015 1.50015 0 0 0 13 22.5 L 13 18.322266 z M 15.011719 22 C 14.360719 22 13.884969 22.596891 14.042969 23.212891 L 14.978516 27.863281 C 15.149516 28.531281 15.764703 29 16.470703 29 L 21.261719 29 C 21.967719 29 22.582906 28.532234 22.753906 27.865234 L 23.363281 25 L 24.638672 25 L 25.248047 27.865234 C 25.419047 28.532234 26.033281 29 26.738281 29 L 31.529297 29 C 32.235297 29 32.849484 28.531281 33.021484 27.863281 L 33.958984 23.212891 C 34.116984 22.597891 33.638281 22 32.988281 22 L 27.845703 22 L 24 22 L 15.011719 22 z M 20.5 37 L 27.5 37 C 27.795045 37 28 37.204955 28 37.5 L 28 40.5 C 28 41.171098 27.586155 41.715032 26.994141 41.914062 A 3 2 0 0 0 24 40 A 3 2 0 0 0 21.005859 41.914062 C 20.413845 41.715032 20 41.171098 20 40.5 L 20 37.5 C 20 37.204955 20.204955 37 20.5 37 z"/></svg>