<?xml version="1.0" encoding="UTF-8"?>
<svg id="Layer_1" data-name="Layer 1" xmlns="http://www.w3.org/2000/svg" viewBox="0 0 126.27 18.97">
  <defs>
    <style>
      .cls-1, .cls-2 {
        fill: #595d62;
      }

      .cls-2 {
        fill-rule: evenodd;
      }
    </style>
  </defs>
  <path class="cls-2" d="m12.99,0h5.6c.95,0,1.84,1.42,2.15,2.29l5.69,15.58c.32.87-.78,1.11-1.73,1.11h-5.85c-.95,0-1.94-.81-2.24-1.7l-3.32-9.76-3.32,9.76c-.3.89-1.29,1.7-2.24,1.7H1.86c-.95,0-2.14-.31-1.81-1.18.62-1.67,2.09-6.7,3.2-7.74.54-.49.95-.53,2.08-.66,1.23-.18,1.61-.15,1.97-.41.72-.53,1.11-1.3,1.4-2.11.69-1.98,1.38-3.94,2.09-5.92.3-.87.39-.89,1.65-.92.18-.01.38-.03.56-.03h-.02Z"/>
  <path class="cls-2" d="m37.54,5.59l-3.76,8.79h1.98l1.01-2.47h4.8l1.03,2.47h1.98l-3.76-8.79c-.18-.41-.39-.69-.64-.85-.24-.17-.57-.25-1-.25s-.79.08-1.03.24c-.23.16-.43.45-.61.87Zm-.28,5l1.64-3.98c.1-.27.2-.41.28-.41s.18.14.28.41l1.62,3.98h-3.83Z"/>
  <path class="cls-1" d="m58.49,14.38h1.88V4.59h-1.88v9.78Z"/>
  <path class="cls-1" d="m61.78,12.91v1.47h6.27c.73,0,1.27-.23,1.61-.68.35-.46.53-1.07.53-1.83s-.16-1.3-.48-1.68c-.31-.37-.84-.68-1.59-.91l-3.65-1.13c-.36-.11-.6-.26-.71-.43-.1-.18-.16-.4-.16-.67,0-.34.08-.58.23-.74.15-.16.36-.24.61-.24h5.24v-1.47h-5.74c-.76,0-1.33.21-1.71.64-.38.42-.57.99-.57,1.72s.12,1.27.37,1.68c.26.4.7.7,1.32.89l3.93,1.22c.65.2.97.56.97,1.1,0,.71-.31,1.06-.94,1.06h-5.53Z"/>
  <path class="cls-1" d="m79.62,6.06h3.87v-1.47h-4.76c-.83,0-1.52.12-2.09.36-.57.23-1.01.58-1.31,1.05-.3.46-.52.96-.64,1.52-.12.56-.19,1.21-.19,1.96s.06,1.4.19,1.96c.12.56.34,1.07.64,1.54.3.46.74.81,1.31,1.05.57.23,1.27.35,2.09.35h3.53c.97,0,1.45-.49,1.45-1.47v-3.33h-1.88v2.63c0,.28-.05.47-.14.56-.1.09-.28.14-.57.14h-1.51c-1.22,0-2.05-.24-2.51-.71-.45-.48-.67-1.39-.67-2.71s.22-2.22.67-2.7c.46-.48,1.29-.73,2.51-.73Z"/>
  <path class="cls-1" d="m85.13,14.38h1.88v-7.62c0-.28.05-.47.14-.56.09-.09.28-.14.57-.14h3.03c.57,0,.94.12,1.13.36.19.24.28.66.28,1.26s-.08,1.08-.24,1.37c-.15.29-.47.43-.95.43h-1.94c-.27,0-.47.06-.63.18-.14.12-.21.28-.21.49v.22c0,.22.16.5.47.82l3.22,3.17h2.42l-3.5-3.35v-.07h1c1.54,0,2.31-1.09,2.31-3.27,0-1.02-.19-1.79-.58-2.31-.38-.52-1.02-.78-1.91-.78h-5.03c-.97,0-1.45.49-1.45,1.47v8.32Z"/>
  <path class="cls-2" d="m102.8,4.71c-.62-.15-1.41-.22-2.38-.22s-1.75.07-2.36.22c-.62.15-1.14.41-1.57.8-.43.38-.73.89-.91,1.54-.18.63-.27,1.45-.27,2.45s.09,1.82.27,2.46c.18.63.48,1.14.91,1.52s.95.65,1.57.8c.62.15,1.41.22,2.36.22s1.76-.07,2.38-.22c.62-.15,1.14-.41,1.57-.8.43-.38.73-.89.91-1.52.18-.64.27-1.46.27-2.46s-.09-1.81-.27-2.45c-.18-.64-.48-1.16-.91-1.54-.43-.38-.95-.65-1.57-.8Zm-5.55,4.78c0-1.39.22-2.32.66-2.81.45-.48,1.29-.73,2.52-.73s2.07.24,2.52.73c.45.48.67,1.42.67,2.81s-.22,2.32-.67,2.81c-.45.48-1.29.73-2.52.73s-2.07-.24-2.52-.73c-.44-.48-.66-1.42-.66-2.81Z"/>
  <path class="cls-1" d="m111.3,13.02c-.85,0-1.48-.17-1.87-.52-.39-.35-.58-.91-.58-1.68v-6.23h-1.88v6.23c0,1.33.36,2.28,1.08,2.84.73.55,1.81.82,3.25.82s2.51-.27,3.23-.82c.73-.56,1.1-1.5,1.1-2.84v-6.23h-1.88v6.23c0,.76-.19,1.32-.58,1.68-.39.34-1.01.52-1.87.52Z"/>
  <path class="cls-2" d="m117.33,6.06v8.32h1.88v-3.47h4.53c.51,0,.94-.08,1.28-.25.35-.17.61-.41.78-.71.18-.32.3-.65.37-.99.07-.34.1-.75.1-1.22s-.03-.87-.1-1.2c-.07-.34-.19-.67-.37-.98-.17-.32-.43-.55-.78-.71-.34-.17-.77-.25-1.28-.25h-4.96c-.97,0-1.45.49-1.45,1.47Zm5.48,3.38h-3.6v-2.68c0-.28.05-.47.14-.56.09-.09.28-.14.57-.14h2.89c.61,0,1.01.13,1.21.39.21.25.31.68.31,1.29s-.1,1.04-.31,1.31c-.2.26-.6.39-1.21.39Z"/>
  <path class="cls-1" d="m45.9,14.38h1.89s0-5.69,0-5.69c.07-.42.69-.33.8-.13.72,1.48,2.2,4.34,2.28,4.48.08.14.22.19.3.2.16.02.43.01.58,0,.15-.01.25-.12.29-.2.66-1.23,2.05-3.84,2.29-4.34.24-.5.82-.34.81-.13v5.81s1.89,0,1.89,0c.03-2.81-.01-8.85-.03-9.31-.02-.46-.23-.47-.42-.47-.31,0-.87,0-1.25,0-.14,0-.26,0-.34,0-.28,0-.51.21-.59.38l-2.97,5.9c-.89-1.8-2.7-5.5-2.86-5.82-.15-.33-.2-.41-.51-.46-.32,0-.93,0-1.37,0-.16,0-.3,0-.39,0-.32,0-.44.21-.46.36l.05,9.43Z"/>
</svg>