<?xml version="1.0" encoding="UTF-8"?>
<svg id="Layer_1" data-name="Layer 1" xmlns="http://www.w3.org/2000/svg" viewBox="0 0 2255.85 717.21">
  <defs>
    <style>
      .cls-1 {
        fill: #e7e9fd;
      }

      .cls-2 {
        fill: #595d62;
      }
    </style>
  </defs>
  <path class="cls-2" d="m0,699.73V0h202.09c117.9,0,210.06,40.12,210.06,180.98,0,61.56-21.26,116.61-75.32,147.42v1.85c70.9,42.93,85.98,80.25,85.98,167.01,0,141.81-76.22,202.44-202.98,202.44H0v.03Zm582.11-246.45v95.09c0,30.09,12.93,55.32,45.17,57.23,54.4,2.93,48.87-48.51,51.62-94.1h145.63c7.37,139.72-64.52,203.76-191.73,205.7-105.09.96-197.25-44.63-197.25-168.83v-221.22c0-139.72,83.89-185.34,197.25-186.29,102.31-.99,197.25,39.77,197.25,157.15v155.24h-247.94v.03Zm405.58-296.9v67.92h1.85c13.82-41.71,56.22-83.44,102.31-83.44,69.11,0,130.88,39.77,130.88,113.51v445.34h-146.56v-388.11c-1.85-25.23-11.05-46.57-38.69-44.63-25.82.99-39.65,16.51-39.65,44.63v388.11h-146.59V156.35h136.44v.03Zm506.04,543.35v-63.08h-1.85c-26.75,52.39-70.96,80.55-114.28,80.55-106.94-3.88-128.14-109.66-128.14-201.82v-188.23c0-85.38,28.57-186.29,125.36-186.29,38.72,0,76.49,17.46,106.91,64.99h1.85V13.08h146.56v686.66h-136.41Zm178.83-543.35h146.56v543.35h-146.56V156.38Zm0-143.3h146.56v89.95h-146.56V13.08Zm579.63,143.3l-90.34,271.65,94.01,271.71h-146.56l-46.99-156.23h-1.85l-46.99,156.23h-150.26l88.4-271.71-82.88-271.65h145.63l43.32,152.32h1.85l46.1-152.32h146.56Z"/>
  <path class="cls-1" d="m155.99,573.78c77.98-1.85,110.79,3.73,110.79-90.49,0-81.17-44.3-79.29-110.79-82.1v172.59Zm0-298.55c68.25-4.66,100.13,0,100.13-83.03,0-69.02-45.2-66.25-100.13-66.25v149.27h0Zm527.5,76.16v-53.38c0-19.41-11.97-55.32-49.77-55.32-41.47,0-51.62,34.93-51.62,72.79v35.92h101.39Zm712.51,152.32c0,32.03,0,87.32,42.39,87.32,39.65,0,45.17-41.71,45.17-94.1v-128.08c0-46.57-6.45-102.85-42.39-101.89-46.99,0-45.17,61.14-45.17,96.07v140.68h0Z"/>
</svg>