<?xml version="1.0" encoding="UTF-8"?>
<svg id="Layer_1" data-name="Layer 1" xmlns="http://www.w3.org/2000/svg" viewBox="0 0 530.87 113.7">
  <defs>
    <style>
      .cls-1 {
        fill: #5a5e63;
      }
    </style>
  </defs>
  <path class="cls-1" d="m484.66,41.21h-.61c-2.56,0-5.02.92-7.17,2.15-7.47,5.32-6.14,13.6-6.14,21.68s6.14,14.52,13.92,14.52h14.54c7.78,0,13.92-6.75,13.92-14.52,0-7.16,1.23-13.6-3.69-19.22-1.23-1.53-3.07-2.76-5.02-3.68-1.54-.61-3.38-.92-5.22-.92h-14.54Zm-6.86,52.96c-13.92-2.25-24.46-14.01-24.77-28.22-.31-9.61-.61-18.2,4.61-26.28,5.02-8.38,14.33-13.6,23.85-13.6h20.78c15.56,0,28.25,13.29,28.56,28.42,0,8.38.61,16.46-3.17,23.82-4.91,9.61-14.54,16.15-25.38,16.15h-20.78c-1.23,0-2.46,0-3.69-.31Zm-232.36-41.51h-43.91v8.38c0,4.4,2.97,6.75,7.37,6.75h36.54c-.92,6.54-6.35,11.14-12.69,11.76h-31.22v8.08c0,5.21,2.97,6.85,7.37,6.85h27.64c12.79,0,26.92-12.78,26.92-26.38v-15.75c0-12.99-13.92-26.28-26.92-26.28h-92.64v7.67c0,3.89,2.66,7.46,6.76,7.46h22.93v44.27c0,4.4,2.87,9,7.78,9h9.93v-53.27h41.46c5.63,0,13,5.21,12.69,11.45Zm71.96,18.61l17.3-45.19h22.62c4.2-.2,7.47,3.48,7.47,7.36v61.04h-9.62c-5.02,0-8.09-4.5-8.09-9v-44.27l-20.78,53.27h-17.61l-20.78-53.27v44.27c0,4.4-3.17,9-8.09,9h-9.52v-61.04c-.1-3.68,2.97-7.36,7.06-7.36h22.93l17.09,45.19Zm121.4-45.19c3.48,0,7.37,3.89,7.37,7.36v61.04h-9.52c-4.81,0-8.09-4.29-8.09-9v-44.27h-39.31v44.27c0,4.5-3.17,9-8.09,9h-9.62v-61.04c0-3.89,3.17-7.46,7.47-7.36h59.78Z"/>
  <path class="cls-1" d="m20.06,0C9.11.1.1,9.1,0,20.04v73.52c.1,11.14,9.11,20.14,20.16,20.14h73.39c11.16,0,20.27-9.1,20.27-20.24V20.14C113.82,9.1,104.82.1,93.66,0H20.06Zm-.92,82.41l-.2-.2-.1-.2C-.72,52.55,19.04,12.07,54.97,11.35l35.62-.1v4.81c-.1,2.66-1.94,4.5-4.61,4.7h-33.06c-28.05,2.66-41.87,34.56-25.59,57.16l.1.31h36.85l.72-2.66,6.35-24.03h-14.64c-2.56,0-4.71-2.15-4.71-4.7l1.33-4.7h32.65l-11.87,45.5H23.13c-1.43-1.64-2.76-3.37-3.99-5.21Zm39.61,19.94H23.24v-4.7c.1-2.66,1.94-4.6,4.61-4.7h32.14l.82-.1c28.15-2.56,41.87-34.56,25.69-57.05l-.21-.31h-36.75l-.41,1.53-1.33,5.01v.1l-5.32,19.94h14.64c2.56.1,4.61,2.15,4.61,4.7l-1.23,4.7H27.74l2.56-9.3,4.2-15.85c0-.31.1-.51.2-.82h-.1l5.12-19.43h50.87c1.53,1.64,2.87,3.27,4.09,5.11l.2.31.1.2c19.55,29.55-.2,69.63-36.24,70.65Z"/>
</svg>