<?xml version="1.0" encoding="UTF-8"?>
<svg id="_Слой_1" data-name="Слой 1" xmlns="http://www.w3.org/2000/svg" xmlns:xlink="http://www.w3.org/1999/xlink" viewBox="0 0 268.57 104.37">
  <defs>
    <style>
      .cls-1 {
        fill: url(#radial-gradient);
      }

      .cls-1, .cls-2, .cls-3, .cls-4, .cls-5, .cls-6 {
        fill-rule: evenodd;
      }

      .cls-2, .cls-7, .cls-4, .cls-8, .cls-9, .cls-6 {
        stroke: #595d62;
      }

      .cls-2, .cls-4, .cls-6 {
        stroke-miterlimit: 22.93;
        stroke-width: .22px;
      }

      .cls-2, .cls-5 {
        fill: #595d62;
      }

      .cls-7 {
        stroke-width: 1.53px;
      }

      .cls-7, .cls-8, .cls-9 {
        fill: none;
        stroke-miterlimit: 10;
      }

      .cls-3, .cls-6 {
        fill: #e7e9fd;
      }

      .cls-4 {
        fill: url(#radial-gradient-2);
      }

      .cls-8 {
        stroke-width: .84px;
      }

      .cls-9 {
        stroke-width: .51px;
      }
    </style>
    <radialGradient id="radial-gradient" cx="141.83" cy="700.5" fx="141.83" fy="700.5" r="206.35" gradientTransform="translate(0 679.66) scale(1 -1)" gradientUnits="userSpaceOnUse">
      <stop offset="0" stop-color="#595d62"/>
      <stop offset=".1" stop-color="#595d62"/>
      <stop offset=".89" stop-color="#595d62"/>
      <stop offset="1" stop-color="#595d62"/>
    </radialGradient>
    <radialGradient id="radial-gradient-2" cx="188.97" cy="611.71" fx="188.97" fy="611.71" r="161.22" gradientTransform="translate(0 679.66) scale(1 -1)" gradientUnits="userSpaceOnUse">
      <stop offset="0" stop-color="#595d62"/>
      <stop offset=".1" stop-color="#595d62"/>
      <stop offset=".89" stop-color="#595d62"/>
      <stop offset="1" stop-color="#595d62"/>
    </radialGradient>
  </defs>
  <path class="cls-5" d="m259.53,19.91c-1.18-4.39-4.7-7.77-9.12-8.73-18.14-3.93-44.18-8.15-77.81-8.17-.76,0-1.52,0-2.29.01-40.15.25-62.19,2.36-81.65,4.22l-.81.08c-19.62,1.88-52,7.36-52.33,7.41l-.16.03s-1.48.3-3.16.3-2.47-.27-2.83-.44c-2.89-1.3-5.19-2.05-8.43-2.06-1.33,0-2.78.12-4.57.39-6.19.92-11.23,3.91-13.14,7.81-1.88,3.82-1.86,8.61-1.84,11.77v.88c.07,4,.42,24.27.49,30.53.04,4.01-.38,10.78-.71,16.21-.23,3.77-.42,6.74-.4,8.05.13,9.5,5.18,15.4,13.16,15.41,2.01,0,4.24-.38,6.63-1.13.08-.03,8.4-2.68,10.35-3.43,2.41-.93,6.97-3.92,8.96-8.01.43-.88.91-1.91,1.36-2.64.68-1.1,1.77-1.26,2.58-.68,3.22,2.3,5.73,3.54,8.98,3.54,1.87,0,3.5-.4,4.81-.73l.19-.05c.67-.16,1.9-.56,4.89-1.53,11.2-3.64,40.25-13.4,70.98-20.21,41.84-9.27,81.7-14.11,119.34-12.61,8.16.32,14.27-7.42,12.14-15.34l-5.61-20.88Z"/>
  <path class="cls-7" d="m259.53,19.91c-1.18-4.39-4.7-7.77-9.12-8.73-18.14-3.93-44.18-8.15-77.81-8.17-.76,0-1.52,0-2.29.01-40.15.25-62.19,2.36-81.65,4.22l-.81.08c-19.62,1.88-52,7.36-52.33,7.41l-.16.03s-1.48.3-3.16.3-2.47-.27-2.83-.44c-2.89-1.3-5.19-2.05-8.43-2.06-1.33,0-2.78.12-4.57.39-6.19.92-11.23,3.91-13.14,7.81-1.88,3.82-1.86,8.61-1.84,11.77v.88c.07,4,.42,24.27.49,30.53.04,4.01-.38,10.78-.71,16.21-.23,3.77-.42,6.74-.4,8.05.13,9.5,5.18,15.4,13.16,15.41,2.01,0,4.24-.38,6.63-1.13.08-.03,8.4-2.68,10.35-3.43,2.41-.93,6.97-3.92,8.96-8.01.43-.88.91-1.91,1.36-2.64.68-1.1,1.77-1.26,2.58-.68,3.22,2.3,5.73,3.54,8.98,3.54,1.87,0,3.5-.4,4.81-.73l.19-.05c.67-.16,1.9-.56,4.89-1.53,11.2-3.64,40.25-13.4,70.98-20.21,41.84-9.27,81.7-14.11,119.34-12.61,8.16.32,14.27-7.42,12.14-15.34l-5.61-20.88Z"/>
  <path class="cls-5" d="m259.53,19.4c-1.18-4.39-4.7-7.77-9.12-8.73-18.14-3.93-44.18-8.15-77.81-8.17-.76,0-1.52,0-2.29.01-40.15.25-62.19,2.36-81.65,4.22l-.81.08c-19.62,1.88-52,7.36-52.33,7.41l-.16.03s-1.48.3-3.16.3-2.47-.27-2.83-.43c-2.89-1.3-5.19-2.05-8.43-2.06-1.33,0-2.78.12-4.57.39-6.19.92-11.23,3.91-13.14,7.81-1.88,3.82-1.86,8.6-1.84,11.77v.88c.07,4,.42,24.27.49,30.53.04,4.01-.38,10.78-.71,16.21-.23,3.77-.42,6.74-.4,8.05.13,9.5,5.18,15.4,13.16,15.41,2.01,0,4.24-.38,6.63-1.13.08-.03,8.4-2.68,10.35-3.43,2.41-.93,6.97-3.92,8.96-8.01.43-.88.91-1.91,1.36-2.64.68-1.1,1.77-1.26,2.58-.68,3.22,2.3,5.73,3.54,8.98,3.55,1.87,0,3.5-.4,4.81-.73l.19-.05c.67-.16,1.9-.56,4.89-1.53,11.2-3.64,40.25-13.4,70.98-20.21,41.84-9.27,81.7-14.11,119.34-12.61,8.16.32,14.27-7.42,12.14-15.34l-5.61-20.9Z"/>
  <path class="cls-5" d="m262.46,17.93c-1.19-4.41-4.74-7.8-9.2-8.76C234.97,5.22,208.7.99,174.78.96c-.77,0-1.54,0-2.31.01-40.49.25-62.73,2.37-82.35,4.24l-.81.08c-19.79,1.88-52.45,7.39-52.78,7.44l-.16.03s-1.49.3-3.18.3-2.49-.27-2.86-.44c-2.91-1.31-5.24-2.06-8.51-2.06-1.34,0-2.81.12-4.61.39-6.24.92-11.32,3.93-13.26,7.84-1.89,3.83-1.87,8.64-1.86,11.82v.88c.07,4.01.43,24.37.49,30.66.04,4.03-.38,10.82-.72,16.28-.23,3.78-.42,6.77-.4,8.08.13,9.54,5.22,15.47,13.28,15.47,2.03,0,4.28-.38,6.69-1.13.08-.03,8.47-2.69,10.44-3.44,2.43-.93,7.03-3.94,9.03-8.04.43-.88.92-1.92,1.38-2.65.68-1.1,1.79-1.27,2.61-.68,3.24,2.31,5.78,3.56,9.06,3.56,1.88,0,3.53-.4,4.85-.73l.2-.05c.67-.16,1.92-.57,4.93-1.54,11.3-3.65,40.6-13.46,71.59-20.3,42.2-9.31,82.4-14.17,120.37-12.67,8.23.33,14.39-7.45,12.25-15.4l-5.68-20.98Z"/>
  <path class="cls-5" d="m266.85,33.75l1.27,5.31c1.74,7.28-3.98,14.19-11.46,13.86-30.98-1.36-69.32,1.24-120.47,12.51-34.26,7.55-66.44,18.64-72.54,20.61-2.98.96-4.22,1.36-4.85,1.52l-.2.05c-1.26.31-2.83.7-4.58.7-3.11,0-5.44-1.23-8.41-3.35-.5-.35-1.07-.54-1.65-.54-1.02,0-1.95.56-2.56,1.54-.42.69-.87,1.6-1.26,2.4l-.17.34c-1.77,3.61-5.99,6.56-8.43,7.49-1.92.74-10.29,3.4-10.38,3.42-2.29.72-4.43,1.08-6.35,1.08-3.62,0-6.65-1.31-8.76-3.77-1.2-1.4-2.1-3.16-2.67-5.21.55,2.36,1.51,4.37,2.86,5.94,2.12,2.47,5.15,3.77,8.76,3.77,1.91,0,4.05-.36,6.35-1.08.08-.03,8.45-2.69,10.38-3.42,2.44-.93,6.66-3.87,8.43-7.49l.17-.34c.39-.81.84-1.72,1.26-2.4.61-.98,1.54-1.54,2.56-1.54.58,0,1.15.19,1.65.54,2.98,2.12,5.31,3.35,8.41,3.35,1.75,0,3.32-.39,4.58-.7l.2-.05c.63-.16,1.87-.55,4.85-1.52,6.1-1.97,38.38-13.16,72.68-20.68,46.45-10.19,82.7-14.22,119.25-12.54,8.15.38,14.35-7.23,12.28-15.13-.7-2.73-1.2-4.67-1.2-4.67Z"/>
  <path class="cls-5" d="m264.37,24.72c-2.4-8.72-9.48-15.35-18.33-17.17-16.34-3.35-41.47-6.57-69.63-6.59h-.23c-.69,0-1.38,0-2.07.01-40.54.25-62.8,2.36-82.45,4.23l-.82.08c-19.56,1.86-52.49,7.37-52.83,7.43l-.1.02c-.07.01-1.66.33-3.51.33-1.46,0-2.67-.2-3.5-.57-2.79-1.25-4.88-1.93-7.91-1.93-1.27,0-2.66.12-4.38.37-5.76.85-10.41,3.53-12.13,7-1.74,3.51-1.72,8.1-1.7,11.14v.74c0,.24.42,23.87.49,30.78.04,4.09-.38,10.91-.73,16.41-.23,3.74-.42,6.7-.4,7.95.12,8.73,4.52,13.95,11.76,13.95h.01c1.87,0,3.97-.36,6.22-1.06.09-.03,8.47-2.68,10.38-3.41,2.38-.91,6.5-3.77,8.22-7.28.44-.9.99-1.93,1.4-2.7l.06-.11c.19-.36.35-.65.43-.81.15-.31.75-1.33,1.94-1.33.79,0,1.69.45,2.68,1.33,2.21,1.98,4.88,2.98,7.98,2.98,1.69,0,3.17-.36,4.48-.68l.2-.05c.62-.15,1.97-.47,4.84-1.51,11.74-4.25,41.25-13.55,72.51-20.02,32.64-6.76,75.09-14.07,119.43-12.06,7.63.35,13.35-6.89,11.33-14.25l-3.64-13.22Z"/>
  <path class="cls-3" d="m263,19.76c-1.64-5.97-6.43-10.55-12.46-11.91-15.77-3.55-43.3-7.57-74.13-7.59h-.23c-.69,0-1.38,0-2.07.01-40.54.25-62.8,2.36-82.45,4.23l-.82.08c-19.56,1.86-52.49,7.37-52.83,7.43l-.11.02c-.07.01-1.66.33-3.51.33-1.46,0-2.67-.2-3.5-.57-2.79-1.25-4.88-1.93-7.91-1.93-1.27,0-2.66.12-4.38.37-5.77.85-10.41,3.53-12.13,7-1.74,3.51-1.72,8.1-1.7,11.14v.74c0,.24.42,23.87.49,30.78.04,4.08-.39,10.91-.73,16.4-.23,3.74-.42,6.7-.4,7.95.12,8.73,4.52,13.95,11.76,13.95h.01c1.88,0,3.97-.36,6.23-1.06.08-.03,8.47-2.68,10.38-3.41,2.38-.91,6.5-3.77,8.22-7.28.44-.9.99-1.93,1.4-2.7l.06-.11c.19-.36.35-.65.43-.82.16-.31.75-1.33,1.94-1.33.79,0,1.69.45,2.68,1.33,2.2,1.98,4.88,2.98,7.98,2.98,1.69,0,3.17-.36,4.48-.68l.2-.05c.62-.15,1.94-.75,4.84-1.68,11.42-4.04,37.7-12.66,75.07-20.37,23.29-4.8,69.09-13.46,116.68-11.47,7.62.32,13.36-6.86,11.34-14.22l-4.83-17.56Z"/>
  <path class="cls-9" d="m263,19.76c-1.64-5.97-6.43-10.55-12.46-11.91-15.77-3.55-43.3-7.57-74.13-7.59h-.23c-.69,0-1.38,0-2.07.01-40.54.25-62.8,2.36-82.45,4.23l-.82.08c-19.56,1.86-52.49,7.37-52.83,7.43l-.11.02c-.07.01-1.66.33-3.51.33-1.46,0-2.67-.2-3.5-.57-2.79-1.25-4.88-1.93-7.91-1.93-1.27,0-2.66.12-4.38.37-5.77.85-10.41,3.53-12.13,7-1.74,3.51-1.72,8.1-1.7,11.14v.74c0,.24.42,23.87.49,30.78.04,4.08-.39,10.91-.73,16.4-.23,3.74-.42,6.7-.4,7.95.12,8.73,4.52,13.95,11.76,13.95h.01c1.88,0,3.97-.36,6.23-1.06.08-.03,8.47-2.68,10.38-3.41,2.38-.91,6.5-3.77,8.22-7.28.44-.9.99-1.93,1.4-2.7l.06-.11c.19-.36.35-.65.43-.82.16-.31.75-1.33,1.94-1.33.79,0,1.69.45,2.68,1.33,2.2,1.98,4.88,2.98,7.98,2.98,1.69,0,3.17-.36,4.48-.68l.2-.05c.62-.15,1.94-.75,4.84-1.68,11.42-4.04,37.7-12.66,75.07-20.37,23.29-4.8,69.09-13.46,116.68-11.47,7.62.32,13.36-6.86,11.34-14.22l-4.83-17.56Z"/>
  <path class="cls-5" d="m265.95,36.69l-4.52-16.44c-1.51-5.5-5.99-9.67-11.58-10.78-14.43-2.87-41.83-7.3-74.35-7.45-40.98-.18-63.2,2.61-83.02,4.49-19.82,1.88-52.62,7.4-52.62,7.4,0,0-5.29,1.12-8.75-.43-3.46-1.55-5.5-2.11-10.72-1.34-5.22.77-8.86,3.13-10.02,5.47-1.57,3.18-1.41,7.86-1.41,10.59,0,0,.42,23.85.49,30.8s-1.17,21.46-1.13,24.34c.07,5.05,1.98,14.1,14.32,10.25,0,0,8.39-2.66,10.23-3.36,1.83-.7,5.36-3.15,6.7-5.89.71-1.44,1.65-3.14,1.9-3.65.85-1.68,3.91-4.98,8.39-1.33,4.58,3.73,7.72,2.85,10.72,2.11,3.06-.75,39.61-13.03,77.87-20.93,46.1-9.51,89.59-12.82,117.72-11.61,6.58.3,11.52-5.9,9.78-12.24Z"/>
  <path class="cls-1" d="m172.07,1.62h-.41c-38.55,0-60,2.68-79.19,4.5h0c-19.82,1.88-52.62,7.4-52.62,7.4h0s-5.29,1.12-8.75-.43h0c-3.46-1.55-5.5-2.11-10.72-1.34h0c-5.22.77-8.86,3.13-10.02,5.47h0c-1.57,3.18-1.41,7.86-1.41,10.59h0s.42,23.85.49,30.8h0c.07,6.95-1.17,21.46-1.13,24.34h0c.07,5.05,1.98,14.1,14.32,10.25h0s8.39-2.66,10.23-3.36h0c1.83-.7,5.36-3.15,6.7-5.89h0c.7-1.44,1.65-3.14,1.9-3.65h0c.85-1.68,3.91-4.98,8.39-1.33h0c4.58,3.73,7.72,2.85,10.72,2.11h0c3.06-.75,39.61-13.03,77.87-20.92h0c46.1-9.51,89.59-12.82,117.72-11.6h0c6.58.28,11.52-5.91,9.78-12.26h0l-4.52-16.44c-1.51-5.5-5.99-9.67-11.58-10.78h0c-14.43-2.87-41.83-7.3-74.35-7.45h0c-1.15-.01-2.3-.01-3.42-.01Z"/>
  <path class="cls-5" d="m134.3,34.57c-1.59-4.95-6.41-18.65-8.28-23.96-.45-1.27-1.69-2.07-3.02-1.97l-6,.47c-.91.07-1.5.99-1.18,1.85.51,1.36,1.22,3.29,1.79,4.89,2.94,8.23,4.58,12.49-1.28,13.6-5.79,1.1-7.04-4.61-9.77-12.14-.52-1.45-1.02-3.03-1.6-4.75-.45-1.33-1.77-2.18-3.16-2.03l-6.57.7c-.78.08-1.28.87-1.02,1.61.37,1.07.68,2.01,1.06,3.18,2.57,7.96,4.12,11.64,4.95,13.81,1.62,4.25,7.66,12.23,19.51,9.32.94-.23,1.8-.49,2.59-.78,1.87-.75,2.46-1.55,2.63-2.01.04-.11.19-.11.24,0,.3.75.93,2.54.88,4.42-.03.99-.48,2.67-1.31,3.3-.54.54-1.28.97-2.25,1.27-2.17.65-4.08-.15-5.6-1.69-.35-.35-.85-.51-1.33-.4l-8.35,1.92c-.78.18-1.17,1.04-.79,1.75,2.32,4.36,8.26,10.4,18.81,7.81,12.1-2.94,10.98-14.19,9.05-20.17Z"/>
  <path class="cls-8" d="m134.3,34.57c-1.59-4.95-6.41-18.65-8.28-23.96-.45-1.27-1.69-2.07-3.02-1.97l-6,.47c-.91.07-1.5.99-1.18,1.85.51,1.36,1.22,3.29,1.79,4.89,2.94,8.23,4.58,12.49-1.28,13.6-5.79,1.1-7.04-4.61-9.77-12.14-.52-1.45-1.02-3.03-1.6-4.75-.45-1.33-1.77-2.18-3.16-2.03l-6.57.7c-.78.08-1.28.87-1.02,1.61.37,1.07.68,2.01,1.06,3.18,2.57,7.96,4.12,11.64,4.95,13.81,1.62,4.25,7.66,12.23,19.51,9.32.94-.23,1.8-.49,2.59-.78,1.87-.75,2.46-1.55,2.63-2.01.04-.11.19-.11.24,0,.3.75.93,2.54.88,4.42-.03.99-.48,2.67-1.31,3.3-.54.54-1.28.97-2.25,1.27-2.17.65-4.08-.15-5.6-1.69-.35-.35-.85-.51-1.33-.4l-8.35,1.92c-.78.18-1.17,1.04-.79,1.75,2.32,4.36,8.26,10.4,18.81,7.81,12.1-2.94,10.98-14.19,9.05-20.17Z"/>
  <path class="cls-5" d="m264.18,30.69l1.54,5.48c1.72,6.13-3.06,12.15-9.41,11.85-28.16-1.32-72.29,2.43-117.97,11.65-38.29,7.74-74.8,20.17-77.87,20.93-3,.74-6.14,1.62-10.72-2.11-4.48-3.65-7.55-.36-8.39,1.33-.25.51-1.2,2.21-1.91,3.65-1.34,2.74-4.87,5.19-6.7,5.89s-10.23,3.36-10.23,3.36c-10.37,3.23-13.37-2.64-14.11-7.59.93,4.76,4.14,9.88,13.97,6.82,0,0,8.39-2.66,10.23-3.36,1.83-.7,5.36-3.15,6.7-5.89.71-1.44,1.65-3.14,1.9-3.65.85-1.68,3.91-4.98,8.39-1.33,4.58,3.73,7.72,2.85,10.72,2.11,3.06-.75,39.54-13.38,77.87-20.92,43.24-8.51,86.85-12.59,118.29-11.46,5.99.22,10.52-5.36,9.07-11.18-.76-3.12-1.37-5.58-1.37-5.58Z"/>
  <path class="cls-5" d="m34.66,56.06c-1.07.23-2-.48-2.06-1.57l-.46-9.03c-.06-1.09.49-1.31,1.21-.48l7.06,8.09c.72.83.43,1.69-.64,1.92l-5.11,1.07h0Zm16.85-9.26c-7.05-8.08-23.79-24.8-23.79-24.8-.78-.78-2.29-1.23-3.37-1.01l-6.15,1.25c-1.08.22-1.87,1.29-1.77,2.38,0,0,1.41,9.08,1.93,25.48.3,9.59-.74,31.22-.74,31.22-.06,1.09.76,1.74,1.81,1.44l10.37-2.96c1.06-.3,2.01-1.44,2.13-2.53l.52-4.98c.11-1.09,1.07-2.23,2.13-2.54l13.38-3.95c1.05-.31,2.52.09,3.26.9l3.32,3.62c.74.81,2.22,1.23,3.28.94l9.55-2.63c1.06-.29,1.37-1.23.68-2.09-.01-.01-7.51-9.4-16.54-19.74Z"/>
  <path class="cls-8" d="m34.66,56.06c-1.07.23-2-.48-2.06-1.57l-.46-9.03c-.06-1.09.49-1.31,1.21-.48l7.06,8.09c.72.83.43,1.69-.64,1.92l-5.11,1.07h0Zm16.85-9.26c-7.05-8.08-23.79-24.8-23.79-24.8-.78-.78-2.29-1.23-3.37-1.01l-6.15,1.25c-1.08.22-1.87,1.29-1.77,2.38,0,0,1.41,9.08,1.93,25.48.3,9.59-.74,31.22-.74,31.22-.06,1.09.76,1.74,1.81,1.44l10.37-2.96c1.06-.3,2.01-1.44,2.13-2.53l.52-4.98c.11-1.09,1.07-2.23,2.13-2.54l13.38-3.95c1.05-.31,2.52.09,3.26.9l3.32,3.62c.74.81,2.22,1.23,3.28.94l9.55-2.63c1.06-.29,1.37-1.23.68-2.09-.01-.01-7.51-9.4-16.54-19.74Z"/>
  <path class="cls-5" d="m138.39,9.17l1.1,41.16c.02.77.71,1.33,1.47,1.21l6.65-1.11c1.03-.17,1.77-1.07,1.75-2.11l-.5-22.15c0-.35.46-.48.63-.18l12.2,20.56c.51.85,1.47,1.32,2.46,1.18l6.75-.97c.8-.11,1.23-1.01.81-1.7l-22.27-36.77c-.45-.74-1.26-1.17-2.12-1.12l-7.4.38c-.88.03-1.55.75-1.53,1.62Z"/>
  <path class="cls-8" d="m138.39,9.17l1.1,41.16c.02.77.71,1.33,1.47,1.21l6.65-1.11c1.03-.17,1.77-1.07,1.75-2.11l-.5-22.15c0-.35.46-.48.63-.18l12.2,20.56c.51.85,1.47,1.32,2.46,1.18l6.75-.97c.8-.11,1.23-1.01.81-1.7l-22.27-36.77c-.45-.74-1.26-1.17-2.12-1.12l-7.4.38c-.88.03-1.55.75-1.53,1.62Z"/>
  <path class="cls-5" d="m34.66,56.06c-1.07.23-2-.48-2.06-1.57l-.46-9.03c-.06-1.09.49-1.31,1.21-.48l7.06,8.09c.72.83.43,1.69-.64,1.92l-5.11,1.07h0Zm16.85-9.26c-7.05-8.08-23.79-24.8-23.79-24.8-.78-.78-2.29-1.23-3.37-1.01l-6.15,1.25c-1.08.22-1.87,1.29-1.77,2.38,0,0,1.41,9.08,1.93,25.48.3,9.59-.74,31.22-.74,31.22-.06,1.09.76,1.74,1.81,1.44l10.37-2.96c1.06-.3,2.01-1.44,2.13-2.53l.52-4.98c.11-1.09,1.07-2.23,2.13-2.54l13.38-3.95c1.05-.31,2.52.09,3.26.9l3.32,3.62c.74.81,2.22,1.23,3.28.94l9.55-2.63c1.06-.29,1.37-1.23.68-2.09-.01-.01-7.51-9.4-16.54-19.74Z"/>
  <path class="cls-8" d="m34.66,56.06c-1.07.23-2-.48-2.06-1.57l-.46-9.03c-.06-1.09.49-1.31,1.21-.48l7.06,8.09c.72.83.43,1.69-.64,1.92l-5.11,1.07h0Zm16.85-9.26c-7.05-8.08-23.79-24.8-23.79-24.8-.78-.78-2.29-1.23-3.37-1.01l-6.15,1.25c-1.08.22-1.87,1.29-1.77,2.38,0,0,1.41,9.08,1.93,25.48.3,9.59-.74,31.22-.74,31.22-.06,1.09.76,1.74,1.81,1.44l10.37-2.96c1.06-.3,2.01-1.44,2.13-2.53l.52-4.98c.11-1.09,1.07-2.23,2.13-2.54l13.38-3.95c1.05-.31,2.52.09,3.26.9l3.32,3.62c.74.81,2.22,1.23,3.28.94l9.55-2.63c1.06-.29,1.37-1.23.68-2.09-.01-.01-7.51-9.4-16.54-19.74Z"/>
  <path class="cls-5" d="m53.54,16.58c-1.08.16-1.57,1.09-1.07,2.07,0,0,5.25,10.47,10.59,24.06,3.85,9.79,7.94,22.67,7.94,22.67.33,1.04,1.46,1.67,2.52,1.38l7.66-2.05c1.06-.28,1.64-1.36,1.31-2.41l-4.86-15.03c-.34-1.04.09-1.33.94-.65l16.45,13.12c.85.68,2.42,1.01,3.47.72l9.28-2.52c1.06-.29,1.23-1.09.38-1.78l-21.6-17.72c-.85-.69-1.3-2.12-1-3.18,0,0,1.71-6.11,2.63-10.25.93-4.23,2.48-11.04,2.48-11.04.24-1.07-.45-1.86-1.54-1.77l-9.26.8c-1.09.09-2.2,1.04-2.48,2.1l-4.32,16.77c-.27,1.06-.83,1.09-1.24.08,0,0-1.74-4.33-4.12-9.81-1.76-4.04-2.82-5.49-2.82-5.49-.65-.88-2.06-1.47-3.14-1.31l-8.2,1.24Z"/>
  <path class="cls-8" d="m53.54,16.58c-1.08.16-1.57,1.09-1.07,2.07,0,0,5.25,10.47,10.59,24.06,3.85,9.79,7.94,22.67,7.94,22.67.33,1.04,1.46,1.67,2.52,1.38l7.66-2.05c1.06-.28,1.64-1.36,1.31-2.41l-4.86-15.03c-.34-1.04.09-1.33.94-.65l16.45,13.12c.85.68,2.42,1.01,3.47.72l9.28-2.52c1.06-.29,1.23-1.09.38-1.78l-21.6-17.72c-.85-.69-1.3-2.12-1-3.18,0,0,1.71-6.11,2.63-10.25.93-4.23,2.48-11.04,2.48-11.04.24-1.07-.45-1.86-1.54-1.77l-9.26.8c-1.09.09-2.2,1.04-2.48,2.1l-4.32,16.77c-.27,1.06-.83,1.09-1.24.08,0,0-1.74-4.33-4.12-9.81-1.76-4.04-2.82-5.49-2.82-5.49-.65-.88-2.06-1.47-3.14-1.31l-8.2,1.24Z"/>
  <path class="cls-3" d="m36.07,53.95c-1.07.23-2-.48-2.06-1.57l-.46-9.03c-.05-1.09.49-1.31,1.21-.48l7.06,8.09c.72.83.43,1.69-.64,1.92l-5.11,1.07h0Zm16.85-9.25c-7.05-8.08-23.79-24.8-23.79-24.8-.78-.78-2.29-1.23-3.37-1.01l-6.15,1.25c-1.08.22-1.87,1.29-1.77,2.38,0,0,1.41,9.07,1.93,25.48.3,9.59-.74,31.22-.74,31.22-.06,1.09.76,1.74,1.81,1.44l10.36-2.96c1.06-.3,2.01-1.44,2.13-2.53l.52-4.98c.11-1.09,1.07-2.23,2.12-2.54l13.38-3.95c1.05-.31,2.52.1,3.26.9l3.32,3.62c.74.81,2.22,1.23,3.28.94l9.55-2.63c1.06-.29,1.37-1.23.68-2.09,0,0-7.49-9.4-16.52-19.74Z"/>
  <path class="cls-3" d="m54.58,14.81c-1.08.16-1.57,1.09-1.08,2.07,0,0,5.25,10.47,10.59,24.06,3.85,9.79,7.94,22.68,7.94,22.68.33,1.04,1.47,1.66,2.53,1.38l7.65-2.04c1.06-.28,1.65-1.37,1.31-2.4l-4.87-15.03c-.34-1.04.09-1.33.95-.65l16.44,13.12c.86.68,2.42,1.01,3.48.72l9.27-2.51c1.06-.29,1.23-1.09.39-1.78l-21.6-17.72c-.85-.69-1.3-2.12-1-3.17,0,0,1.72-6.12,2.63-10.26.94-4.23,2.48-11.04,2.48-11.04.24-1.06-.46-1.86-1.55-1.76l-9.25.8c-1.09.09-2.21,1.04-2.48,2.09l-4.32,16.78c-.27,1.06-.83,1.09-1.24.08,0,0-1.74-4.34-4.12-9.81-1.76-4.04-2.82-5.49-2.82-5.49-.65-.88-2.06-1.47-3.15-1.31l-8.18,1.19Z"/>
  <path class="cls-5" d="m248.09,29.83c.38,1.48.77,2.95,1.15,4.43.2.76.86,1.35,1.6,1.42.21.02.39.04.51.05,1.42.11,2.33-.09,2.75-.61.41-.52.5-1.25.26-2.19-.06-.26-.13-.51-.19-.77-.24-.95-.71-1.71-1.41-2.3-.7-.59-1.69-.95-2.97-1.08-.26-.03-.53-.05-.79-.08-.64-.07-1.08.48-.91,1.13h0Zm-2.38-13.13s-.13-.02-.23-.03c-.61-.07-1.05.46-.88,1.06.4,1.41.8,2.82,1.2,4.22.23.81.97,1.45,1.8,1.54l.51.06c1.02.11,1.69-.1,2.02-.62.33-.52.36-1.27.09-2.24-.07-.24-.14-.49-.2-.73-.26-.93-.73-1.67-1.41-2.2-.67-.55-1.64-.9-2.9-1.06h0Zm-1.22-4.91c1.5.25,2.86.65,4.08,1.21,1.21.56,2.28,1.22,3.19,1.98s1.66,1.59,2.25,2.49,1.01,1.83,1.25,2.78c.05.18.09.36.14.55.35,1.37.32,2.55-.08,3.52-.31.77-.87,1.35-1.69,1.73-.22.11-.18.44.07.55,1.26.51,2.37,1.28,3.32,2.3,1.14,1.22,1.92,2.65,2.34,4.3.06.22.11.45.17.67.3,1.17.4,2.24.31,3.19-.09.95-.41,1.76-.96,2.43s-1.35,1.17-2.41,1.49c-1.06.33-2.4.45-4.05.36-.71-.04-3.48-.16-5.5-.26-.97-.05-1.86-.78-2.12-1.75-2.46-9.09-4.93-18.16-7.39-27.21-.21-.76.36-1.42,1.12-1.3,2.14.34,5.7.92,5.96.97Z"/>
  <path class="cls-8" d="m248.09,29.83c.38,1.48.77,2.95,1.15,4.43.2.76.86,1.35,1.6,1.42.21.02.39.04.51.05,1.42.11,2.33-.09,2.75-.61.41-.52.5-1.25.26-2.19-.06-.26-.13-.51-.19-.77-.24-.95-.71-1.71-1.41-2.3-.7-.59-1.69-.95-2.97-1.08-.26-.03-.53-.05-.79-.08-.64-.07-1.08.48-.91,1.13h0Zm-2.38-13.13s-.13-.02-.23-.03c-.61-.07-1.05.46-.88,1.06.4,1.41.8,2.82,1.2,4.22.23.81.97,1.45,1.8,1.54l.51.06c1.02.11,1.69-.1,2.02-.62.33-.52.36-1.27.09-2.24-.07-.24-.14-.49-.2-.73-.26-.93-.73-1.67-1.41-2.2-.67-.55-1.64-.9-2.9-1.06h0Zm-1.22-4.91c1.5.25,2.86.65,4.08,1.21,1.21.56,2.28,1.22,3.19,1.98s1.66,1.59,2.25,2.49,1.01,1.83,1.25,2.78c.05.18.09.36.14.55.35,1.37.32,2.55-.08,3.52-.31.77-.87,1.35-1.69,1.73-.22.11-.18.44.07.55,1.26.51,2.37,1.28,3.32,2.3,1.14,1.22,1.92,2.65,2.34,4.3.06.22.11.45.17.67.3,1.17.4,2.24.31,3.19-.09.95-.41,1.76-.96,2.43s-1.35,1.17-2.41,1.49c-1.06.33-2.4.45-4.05.36-.71-.04-3.48-.16-5.5-.26-.97-.05-1.86-.78-2.12-1.75-2.46-9.09-4.93-18.16-7.39-27.21-.21-.76.36-1.42,1.12-1.3,2.14.34,5.7.92,5.96.97Z"/>
  <path class="cls-3" d="m42.68,49.59l-8.09-9.18c-.72-.83-1.27-.61-1.21.49l.19,2.66v-.21c-.06-1.09.48-1.31,1.2-.48l7.06,8.09c.72.83.43,1.69-.64,1.92l-1.64.35.04.07c1.03-.3,2.16-.5,2.75-.72,1.2-.34,1.44-1.66.34-2.99Z"/>
  <path class="cls-3" d="m69.66,65.05l-9.55,2.63c-1.06.29-2.53-.13-3.27-.94l-3.32-3.62c-.74-.81-2.21-1.21-3.27-.9l-13.38,3.95c-.94.28-1.8,1.21-2.05,2.18.34-.33.74-.59,1.16-.71l13.38-3.95c1.05-.31,2.52.09,3.26.9l3.32,3.62c.74.81,2.22,1.23,3.28.94l9.55-2.63c.82-.23,1.19-.84,1-1.51-.04.02-.07.03-.11.04Z"/>
  <path class="cls-3" d="m32.1,76.22l-10.36,2.96c-1.06.3-1.87-.34-1.82-1.44,0,0,1.04-21.63.74-31.22-.52-16.4-1.93-25.48-1.93-25.48-.02-.17-.01-.34.02-.51-.61.46-.99,1.22-.91,1.99,0,0,1.41,9.07,1.93,25.48.3,9.59-.74,31.22-.74,31.22-.06,1.09.76,1.74,1.81,1.44l10.36-2.96c.94-.27,1.81-1.21,2.06-2.18-.33.32-.74.58-1.16.7Z"/>
  <path class="cls-3" d="m109.09,56.08c.07-.03.13-.06.19-.1,0,0,0,0,0,0,.06-.04.11-.08.16-.12l.03-.03s.08-.09.11-.13h0c.04-.05.06-.11.08-.16t0-.02c.04-.11.04-.23.02-.35h0c0-.07-.03-.14-.06-.2-.09.04-.18.07-.28.1l-9.27,2.52c-1.06.29-2.62-.04-3.48-.72l-17.23-13.72c-.86-.68-1.28-.39-1.14.65l.35,1.63h.02c-.28-.96.14-1.21.97-.55l16.45,13.12c.86.68,2.42,1.01,3.48.72l9.27-2.52c.09-.02.16-.05.24-.08.04,0,.06-.02.07-.03Z"/>
  <path class="cls-3" d="m53.5,16.88s5.25,10.47,10.59,24.06c3.85,9.79,7.94,22.68,7.94,22.68.33,1.04,1.47,1.66,2.53,1.38l7.65-2.04c.78-.21,1.3-.85,1.39-1.58-.22.21-.5.38-.83.46l-7.66,2.04c-1.06.28-2.2-.34-2.53-1.38,0,0-4.09-12.88-7.94-22.68-5.34-13.59-10.59-24.06-10.59-24.06-.12-.23-.18-.47-.19-.69-.55.38-.73,1.08-.36,1.81Z"/>
  <path class="cls-3" d="m74.18,29.79c.19-.07.36-.34.48-.8l4.29-16.66c-.25.3-.44.65-.53,1l-4.24,16.46Z"/>
  <path class="cls-3" d="m135.33,33.04c-1.59-4.95-6.4-18.65-8.28-23.96-.45-1.26-1.68-2.07-3.02-1.97l-6,.47c-.91.07-1.5.99-1.18,1.85.51,1.36,1.22,3.29,1.79,4.89,2.94,8.23,4.58,12.49-1.28,13.6-5.79,1.1-7.04-4.61-9.77-12.14-.52-1.45-1.02-3.03-1.6-4.75-.45-1.33-1.76-2.18-3.16-2.03l-6.57.7c-.78.08-1.28.87-1.02,1.61.37,1.07.68,2.01,1.06,3.18,2.57,7.96,4.12,11.64,4.95,13.81,1.62,4.25,7.66,12.23,19.51,9.32.94-.23,1.8-.49,2.59-.78,1.87-.75,2.46-1.55,2.63-2.01.04-.11.19-.11.24,0,.3.75.93,2.53.88,4.42-.03.99-.48,2.67-1.31,3.3-.54.54-1.28.97-2.25,1.27-2.17.65-4.08-.15-5.6-1.69-.35-.35-.85-.51-1.33-.4l-8.35,1.92c-.78.18-1.17,1.04-.79,1.75,2.32,4.36,8.26,10.4,18.81,7.81,12.09-2.94,10.97-14.19,9.05-20.17Z"/>
  <path class="cls-3" d="m248.62,28.49c.38,1.48.77,2.95,1.15,4.43.2.76.86,1.35,1.6,1.42.21.02.39.04.51.05,1.42.11,2.33-.09,2.75-.61.41-.52.5-1.25.26-2.19-.07-.26-.13-.51-.2-.77-.24-.95-.71-1.71-1.41-2.3-.7-.59-1.69-.95-2.97-1.08-.26-.03-.53-.05-.79-.08-.62-.06-1.06.49-.9,1.13h0Zm-2.38-13.12c-.06-.01-.13-.02-.23-.03-.61-.07-1.05.46-.88,1.06.4,1.41.8,2.81,1.2,4.22.23.82.97,1.45,1.8,1.54.17.02.34.04.51.06,1.02.11,1.69-.1,2.02-.62.33-.52.36-1.27.09-2.24-.07-.24-.14-.49-.21-.73-.26-.93-.73-1.67-1.41-2.21-.65-.54-1.63-.9-2.89-1.05h0Zm-1.22-4.92c1.5.25,2.86.65,4.08,1.21,1.21.56,2.28,1.22,3.19,1.98s1.66,1.59,2.25,2.49,1.01,1.83,1.25,2.78c.05.18.09.36.14.55.35,1.37.32,2.55-.08,3.52-.31.78-.87,1.35-1.69,1.73-.22.11-.18.44.07.55,1.26.51,2.36,1.28,3.32,2.3,1.14,1.22,1.92,2.65,2.34,4.3.06.22.11.45.17.67.3,1.17.4,2.23.31,3.18-.09.96-.41,1.76-.96,2.43s-1.35,1.17-2.41,1.49c-1.06.33-2.4.45-4.05.36-.72-.04-3.48-.16-5.5-.26-.97-.05-1.86-.78-2.12-1.75-2.46-9.08-4.93-18.16-7.39-27.21-.21-.76.35-1.42,1.12-1.3,2.14.35,5.7.94,5.96.98Z"/>
  <path class="cls-5" d="m242.21,39.88l-1.04-3.5c-.28-.96-1.16-1.64-2.16-1.67l-6.86-.22c-.51-.02-.94-.36-1.08-.85l-1.3-4.72c-.14-.5.25-.99.77-.97l6.85.25c.74.03,1.29-.68,1.09-1.39l-.92-3.2c-.22-.75-.88-1.29-1.67-1.34l-7.2-.48c-.58-.04-1.07-.44-1.23-.99l-1.25-4.33c-.13-.46.24-.9.71-.86l6.68.61c.9.08,1.6-.77,1.35-1.63l-.79-2.73c-.28-.96-1.1-1.66-2.09-1.79l-13.16-1.66c-.73-.09-1.32.59-1.11,1.3l8.81,30.59c.19.66.8,1.11,1.49,1.1l13.18-.24c.65-.01,1.11-.65.93-1.28Z"/>
  <path class="cls-8" d="m242.21,39.88l-1.04-3.5c-.28-.96-1.16-1.64-2.16-1.67l-6.86-.22c-.51-.02-.94-.36-1.08-.85l-1.3-4.72c-.14-.5.25-.99.77-.97l6.85.25c.74.03,1.29-.68,1.09-1.39l-.92-3.2c-.22-.75-.88-1.29-1.67-1.34l-7.2-.48c-.58-.04-1.07-.44-1.23-.99l-1.25-4.33c-.13-.46.24-.9.71-.86l6.68.61c.9.08,1.6-.77,1.35-1.63l-.79-2.73c-.28-.96-1.1-1.66-2.09-1.79l-13.16-1.66c-.73-.09-1.32.59-1.11,1.3l8.81,30.59c.19.66.8,1.11,1.49,1.1l13.18-.24c.65-.01,1.11-.65.93-1.28Z"/>
  <path class="cls-3" d="m139.41,7.91l.61,40.84c0,.78.72,1.38,1.49,1.25l6.13-1.02c1.3-.22,2.24-1.35,2.21-2.67l-.49-21.46c0-.41.53-.56.73-.21l11.95,20.14c.59,1,1.72,1.54,2.87,1.37l6.2-.89c.93-.13,1.43-1.18.95-1.99l-21.73-36.67c-.37-.63-1.06-1-1.79-.96l-7.37.38c-.99.05-1.77.89-1.76,1.89Z"/>
  <path class="cls-3" d="m242.74,38.55l-1.04-3.5c-.29-.96-1.16-1.64-2.16-1.67l-6.86-.22c-.5-.01-.94-.36-1.07-.85l-1.3-4.72c-.14-.5.25-.99.77-.97l6.85.25c.74.03,1.29-.68,1.09-1.39l-.92-3.2c-.22-.75-.88-1.29-1.67-1.34l-7.2-.47c-.58-.04-1.07-.44-1.23-.99l-1.25-4.34c-.13-.46.24-.9.71-.86l6.68.61c.9.08,1.6-.76,1.35-1.63l-.79-2.73c-.28-.96-1.1-1.66-2.09-1.79l-13.16-1.66c-.73-.09-1.32.59-1.11,1.3l8.81,30.59c.19.66.8,1.12,1.49,1.1l13.18-.24c.64-.02,1.11-.65.92-1.28Z"/>
  <path class="cls-5" d="m223.27,40.69l-9.48-31.43c-.25-.83-.98-1.42-1.85-1.5l-4.57-.4c-.51-.04-.91.44-.76.93l3.97,13.17s.01.05.02.08c.15,1.17-.36,2.86-2.62,3.14-3.08.39-4.74-1.67-5.13-2.76-.31-.87-3.03-9.94-4.11-13.62-.27-.92-1.09-1.56-2.05-1.6-1.71-.08-3.26-.17-4.74-.24-.61-.03-1.06.55-.89,1.13,1,3.43,2.99,10.24,4.45,15.41,2.25,8.03,12.43,9.77,17.49,7.31.08-.04.15-.08.22-.12l3.35,11.05c.14.45.56.75,1.02.72l4.94-.23c.52,0,.89-.53.74-1.04Z"/>
  <path class="cls-8" d="m223.27,40.69l-9.48-31.43c-.25-.83-.98-1.42-1.85-1.5l-4.57-.4c-.51-.04-.91.44-.76.93l3.97,13.17s.01.05.02.08c.15,1.17-.36,2.86-2.62,3.14-3.08.39-4.74-1.67-5.13-2.76-.31-.87-3.03-9.94-4.11-13.62-.27-.92-1.09-1.56-2.05-1.6-1.71-.08-3.26-.17-4.74-.24-.61-.03-1.06.55-.89,1.13,1,3.43,2.99,10.24,4.45,15.41,2.25,8.03,12.43,9.77,17.49,7.31.08-.04.15-.08.22-.12l3.35,11.05c.14.45.56.75,1.02.72l4.94-.23c.52,0,.89-.53.74-1.04Z"/>
  <path class="cls-3" d="m223.8,39.36l-9.48-31.43c-.25-.83-.98-1.42-1.85-1.5l-4.58-.4c-.51-.04-.91.44-.76.93l3.86,12.79c.13.44.19.91.11,1.37-.18.99-.88,2.01-2.6,2.23-3.08.39-4.74-1.67-5.13-2.76-.31-.87-3.03-9.94-4.11-13.62-.27-.92-1.09-1.56-2.04-1.6-1.71-.08-3.26-.17-4.75-.24-.61-.03-1.06.55-.89,1.13,1,3.43,3,10.24,4.45,15.42,2.25,8.03,12.43,9.78,17.49,7.31.08-.04.15-.08.22-.12l3.35,11.05c.14.45.56.75,1.02.72l4.94-.23c.54-.02.9-.54.75-1.05Z"/>
  <path class="cls-5" d="m184.46,37.47c-.62.06-1.35.07-2,.06-.41-.01-.76-.28-.89-.66l-2.84-8.49c-.14-.41.1-.85.52-.96.89-.23,2.22-.52,3.49-.6,2.96-.2,6.43.58,7.26,4.71.9,4.56-2.7,5.65-5.54,5.94h0Zm4.78-15.88c-4.18-1.98-9.14-1.98-12.7-.52-.12.05-.26-.01-.31-.14l-4.5-13.41c-.21-.61-.78-1.02-1.43-1.01l-7.42.09c-.49.01-.84.49-.68.95,1.78,5.49,8.59,26.36,11.99,36.8.36,1.1,1.45,1.79,2.59,1.65l10.27-1.27c2-.21,3.85-.79,5.29-1.68,2.23-1.37,3.76-3.36,4.35-5.44,2.21-7.76-3.09-13.96-7.45-16.02Z"/>
  <path class="cls-8" d="m184.46,37.47c-.62.06-1.35.07-2,.06-.41-.01-.76-.28-.89-.66l-2.84-8.49c-.14-.41.1-.85.52-.96.89-.23,2.22-.52,3.49-.6,2.96-.2,6.43.58,7.26,4.71.9,4.56-2.7,5.65-5.54,5.94h0Zm4.78-15.88c-4.18-1.98-9.14-1.98-12.7-.52-.12.05-.26-.01-.31-.14l-4.5-13.41c-.21-.61-.78-1.02-1.43-1.01l-7.42.09c-.49.01-.84.49-.68.95,1.78,5.49,8.59,26.36,11.99,36.8.36,1.1,1.45,1.79,2.59,1.65l10.27-1.27c2-.21,3.85-.79,5.29-1.68,2.23-1.37,3.76-3.36,4.35-5.44,2.21-7.76-3.09-13.96-7.45-16.02Z"/>
  <path class="cls-3" d="m184.51,35.93c-.62.05-1.35.03-2,0-.41-.02-.75-.3-.87-.69l-2.6-8.57c-.12-.41.12-.85.54-.94.89-.2,2.23-.46,3.5-.5,2.96-.11,6.49,1.26,7.19,5.42.78,4.59-2.92,5.07-5.76,5.28h0Zm5.44-15.88c-4.18-1.98-9.13-1.98-12.7-.52-.12.05-.27-.01-.31-.14l-4.5-13.41c-.21-.61-.78-1.02-1.43-1.01l-7.42.09c-.49.01-.84.48-.68.95,1.8,5.58,8.81,27.04,12.16,37.3.27.81,1.07,1.32,1.92,1.21l10.79-1.33c2-.21,3.85-.79,5.29-1.68,2.23-1.37,3.76-3.36,4.35-5.44,2.19-7.76-3.11-13.95-7.47-16.02Z"/>
  <path class="cls-3" d="m245.14,16.4c-.29-1.01.53-2,1.57-1.9.07.01.14.01.21.02,1.27.13,2.23.51,2.91,1.05s1.15,1.27,1.41,2.21c.07.24.14.49.21.73.27.97.24,1.72-.09,2.24-.12.19-.29.34-.51.45.15-.48.13-1.1-.08-1.85-.07-.24-.14-.49-.2-.73-.26-.93-.73-1.67-1.41-2.21s-1.65-.89-2.91-1.05c-.05-.01-.13-.02-.23-.03-.62-.06-1.05.47-.88,1.07Z"/>
  <path class="cls-3" d="m118.64,14.32c1.85,5.18,3.18,8.79,2.46,11.03,1.79-2.07.33-5.99-1.86-12.1-.57-1.6-1.33-3.52-1.79-4.89-.06-.18-.11-.33-.15-.48-.45.35-.67.97-.44,1.56.49,1.35,1.21,3.28,1.78,4.88Z"/>
  <path class="cls-3" d="m126.86,52.17c-10.94,2.68-16.93-3.91-19.05-8.28-.47.34-.66.99-.36,1.55,2.32,4.36,8.26,10.4,18.82,7.81,4.75-1.16,7.45-3.6,8.88-6.49-1.55,2.4-4.15,4.39-8.29,5.41Z"/>
  <path class="cls-3" d="m120.75,37.64c.94-.23,1.8-.49,2.59-.78,1.87-.75,2.45-1.55,2.63-2.01.04-.11.19-.11.24,0,.3.75.93,2.53.88,4.42,0,.54-.16,1.28-.42,1.95.65-.76,1-2.15,1.02-3.02.05-1.89-.58-3.67-.88-4.42-.04-.11-.19-.1-.23,0-.18.45-.76,1.25-2.63,2-.79.29-1.65.55-2.59.78-11.85,2.9-17.89-5.07-19.51-9.32-.82-2.17-2.37-5.85-4.95-13.81-.42-1.3-.76-2.31-1.18-3.52-.45.29-.67.87-.48,1.42.37,1.07.68,2.01,1.06,3.18,2.57,7.96,4.12,11.64,4.95,13.81,1.6,4.25,7.65,12.23,19.5,9.32Z"/>
  <path class="cls-3" d="m142.42,48.91c-.77.13-1.48-.46-1.49-1.25l-.62-41.36c-.54.33-.91.93-.9,1.61l.61,40.84c0,.78.72,1.38,1.49,1.25l6.13-1.02c.78-.13,1.43-.6,1.82-1.24l-7.04,1.17Z"/>
  <path class="cls-3" d="m149.35,24.02c-.02-.69.9-.95,1.25-.36l12,20.12c.59.99,1.72,1.54,2.87,1.37l6.77-.97c-.1.53-.51.99-1.11,1.07l-6.2.89c-1.15.16-2.28-.38-2.87-1.37l-11.95-20.14c-.21-.35-.74-.2-.73.21l-.03-.82Z"/>
  <path class="cls-3" d="m193.71,40.49c-1.45.89-3.29,1.47-5.29,1.68l-10.8,1.34c-.84.1-1.64-.4-1.91-1.21-3.33-10.21-10.3-31.54-12.14-37.23-.48.02-.81.49-.66.95,1.81,5.58,8.81,27.04,12.16,37.29.27.81,1.07,1.32,1.92,1.21l10.79-1.33c2-.21,3.85-.79,5.29-1.68,1.67-1.03,2.95-2.41,3.73-3.91-.77,1.1-1.81,2.1-3.09,2.89Z"/>
  <path class="cls-3" d="m178.88,26.1c-.18-.66.25-1.34.93-1.46,1.15-.19,2.76-.4,3.91-.44,2.96-.12,6.56,1.51,7.19,5.42.29,1.77-.06,2.92-.78,3.69.26-.68.34-1.55.15-2.67-.71-4.15-4.23-5.53-7.19-5.42-1.27.05-2.61.3-3.5.51-.42.09-.67.53-.54.94l-.17-.57Z"/>
  <path class="cls-3" d="m211,19.75c.13.44.19.92.11,1.37-.03.17-.08.34-.15.5.47-.42.72-.95.82-1.48.08-.46.02-.93-.11-1.37l-3.84-12.74c-.47.01-.82.46-.68.93l3.85,12.79Z"/>
  <path class="cls-3" d="m218.79,39.67c-.47.02-.89-.27-1.02-.72l-3.35-11.05c-.07.04-.14.08-.22.12-5.06,2.46-15.24.71-17.49-7.31-1.47-5.23-3.49-12.15-4.48-15.54-.47.11-.78.6-.64,1.1,1,3.43,3,10.24,4.45,15.42,2.25,8.02,12.43,9.78,17.49,7.31.08-.04.15-.08.22-.12l3.35,11.05c.14.45.56.74,1.02.72l4.94-.24c.51-.02.86-.5.76-.98l-5.03.24Z"/>
  <path class="cls-3" d="m242.47,38.89l-13.18.24c-.69.01-1.3-.44-1.49-1.1l-8.89-30.89c-.45.19-.73.7-.58,1.22l8.81,30.59c.19.66.8,1.12,1.49,1.1l13.18-.24c.56-.01.97-.47.97-.99-.1.05-.2.07-.31.07Z"/>
  <path class="cls-3" d="m255.31,32.94c.41-.52.5-1.25.26-2.2-.06-.25-.13-.51-.2-.76-.26-.77-.57-1.44-1.27-2.02-.7-.59-1.54-1.11-2.91-1.29-.38-.05-.83-.09-1.27-.12-.88-.06-1.56.76-1.35,1.61v.02c.03-.5.42-.88.94-.82.26.03.53.05.79.08,1.28.13,2.27.49,2.97,1.08.7.59,1.17,1.35,1.41,2.3.07.26.13.51.19.76.17.67.17,1.23.02,1.68.18-.08.31-.19.42-.32Z"/>
  <path class="cls-3" d="m257.7,38.81c-1.06.33-2.4.45-4.05.36-.71-.04-3.48-.16-5.5-.26-.97-.05-1.86-.78-2.12-1.75-2.46-9.08-4.93-18.16-7.39-27.21l-.11-.4c-.45.18-.72.68-.57,1.24,2.47,9.06,4.93,18.13,7.39,27.21.26.97,1.16,1.71,2.12,1.75,2.02.1,4.78.22,5.5.26,1.65.09,3-.03,4.05-.36,1.06-.33,1.86-.82,2.41-1.49.13-.16.26-.34.36-.52-.53.5-1.22.9-2.09,1.17Z"/>
  <path class="cls-3" d="m226.74,15.13c-.28-.95.48-1.89,1.47-1.8l7.23.67c-.18.54-.7.93-1.32.87l-6.68-.6c-.46-.04-.83.41-.7.86Z"/>
  <path class="cls-3" d="m231.07,26.62l6.85.25c.57.02,1.02-.39,1.11-.91l-7.35-.24c-.94-.03-1.64.86-1.39,1.77-.06-.47.31-.88.78-.87Z"/>
  <path class="cls-5" d="m80.47,72.17c20.82-6.23,101.48-28.71,169.83-24.86,3.03.17,5.61,2.28,6.41,5.22.69,2.54,1.53,5.69,2.33,8.66,1.23,4.56-2.25,9.01-6.96,8.92-59.77-1.08-128.56,21.05-164.28,33.32-5.95,2.04-12.14-2.35-12.21-8.65l-.17-15.75c-.04-3.16,2.02-5.96,5.05-6.86Z"/>
  <path class="cls-9" d="m80.47,72.17c20.82-6.23,101.48-28.71,169.83-24.86,3.03.17,5.61,2.28,6.41,5.22.69,2.54,1.53,5.69,2.33,8.66,1.23,4.56-2.25,9.01-6.96,8.92-59.77-1.08-128.56,21.05-164.28,33.32-5.95,2.04-12.14-2.35-12.21-8.65l-.17-15.75c-.04-3.16,2.02-5.96,5.05-6.86Z"/>
  <path class="cls-5" d="m80.47,71.66c20.82-6.23,101.48-28.72,169.83-24.87,3.03.17,5.61,2.28,6.41,5.22.69,2.54,1.53,5.69,2.33,8.66,1.23,4.56-2.25,9.01-6.96,8.92-59.77-1.08-128.56,21.05-164.28,33.32-5.95,2.04-12.14-2.35-12.21-8.65l-.17-15.75c-.03-3.15,2.02-5.95,5.05-6.85Z"/>
  <path class="cls-5" d="m81.22,70.48c21.03-6.23,102.49-28.68,171.47-24.63,3.06.18,5.66,2.31,6.45,5.27.69,2.56,1.53,5.73,2.33,8.73,1.23,4.59-2.29,9.07-7.05,8.97-60.33-1.23-129.8,20.89-165.88,33.16-6.01,2.04-12.25-2.39-12.3-8.74l-.14-15.86c-.02-3.18,2.07-5.99,5.12-6.9Z"/>
  <path class="cls-5" d="m254.28,67.67c-60.9-1.21-129.25,20.18-165.09,32.34-6.52,2.21-11.75-2.34-11.78-8.44l-.08.85c.03,6.09,5.28,10.59,11.78,8.44,35.93-11.91,104.31-33.91,165.21-32.7,3.59.07,6.36-2.42,6.45-5.91-.49,3.09-3.19,5.49-6.49,5.42Z"/>
  <path class="cls-5" d="m79.17,92.51c.3,1.93,1.21,3.78,2.67,5.07,1.43,1.31,3.36,2.1,5.29,1.99.97-.04,1.89-.3,2.82-.64l2.78-.95,5.58-1.88c7.43-2.5,14.92-4.86,22.42-7.17,7.53-2.22,15.07-4.39,22.66-6.36l5.7-1.47c1.9-.49,3.81-.92,5.72-1.39l5.72-1.37,5.75-1.26c15.33-3.35,30.81-6.05,46.4-7.82l5.85-.66c1.95-.18,3.91-.32,5.86-.48l5.87-.46c1.96-.14,3.92-.18,5.88-.28l5.88-.25c.98-.06,1.96-.05,2.94-.05h2.94s5.88-.02,5.88-.02c.98-.03,1.98.09,2.91-.22.93-.29,1.76-.88,2.36-1.65l.04.03c-.6.78-1.44,1.38-2.38,1.68-.95.32-1.96.21-2.93.24l-5.88.04-2.94.02c-.98,0-1.96,0-2.94.06l-5.88.27c-1.96.11-3.92.16-5.87.31l-5.86.49c-1.95.17-3.91.31-5.86.51l-5.84.68c-15.57,1.82-31.03,4.57-46.34,7.97l-5.74,1.28-5.71,1.39c-1.9.47-3.81.91-5.71,1.41l-5.69,1.49c-7.59,1.97-15.13,4.14-22.64,6.36-7.51,2.25-15.01,4.54-22.46,6.99l-5.59,1.83-2.79.92c-.92.33-1.9.61-2.9.63-2,.09-3.97-.76-5.4-2.11-1.46-1.34-2.35-3.23-2.62-5.17h.05Z"/>
  <path class="cls-5" d="m254.3,64.84c-65.51-1.29-131.5,19.35-163.6,30.11-3.32,1.11-6.78-1.22-7.02-4.7l-.8-11.84c-.14-2.03,1.13-3.89,3.07-4.51,16.99-5.45,96.56-29.45,167.09-25.25,2.47.15,4.47,2.06,4.73,4.51l.75,7.1c.26,2.48-1.72,4.63-4.22,4.58Z"/>
  <path class="cls-3" d="m84.65,72.28c19.86-6.13,99.45-28.99,168.49-24.89,2.1.12,3.89,1.57,4.45,3.61l2.16,7.99c1,3.69-1.82,7.29-5.64,7.22-62.06-1.12-130.91,20.32-164.24,31.46-4.45,1.49-9.08-1.72-9.25-6.41l-.46-12.65c-.11-2.88,1.73-5.48,4.49-6.33Z"/>
  <path class="cls-4" d="m87.31,72.88c-2.65.84-4.38,3.38-4.19,6.15h0l.77,11.42c.21,3.07,3.26,5.12,6.18,4.14h0c31.9-10.67,101.22-32.23,164.14-30.44h0c2.97.08,5.17-2.74,4.38-5.61h0c-.64-2.32-1.35-4.89-1.91-6.92h0c-.58-2.07-2.41-3.54-4.56-3.66h0c-5.21-.29-10.47-.42-15.75-.42h0c-64.22,0-131.33,19.75-149.06,25.34h0Z"/>
  <path class="cls-5" d="m255.5,63.18c-65.82-1.31-132.14,18.99-164.39,29.74-2.62.87-5.32-.38-6.48-2.65.95,2.65,3.88,4.21,6.71,3.26,32.1-10.76,98.13-31.09,163.65-29.8,1.35.03,2.51-.9,3.28-1.87-.75.65-1.69,1.35-2.77,1.32Z"/>
  <path class="cls-2" d="m100.7,76.51c-.51-1.23-3.18-.93-4.4-.61-3.22.86-4.51,3.83-3.44,6.44,1.1,2.7,4.28,4.35,7.6,3.41,1.08-.31,3.52-1.5,2.96-2.8-.26-.6-1.07-.96-1.78-.75-.35.1-1.27.96-2.02,1.17-1.68.47-3.15-.6-3.68-1.87-.55-1.31-.26-2.84,1.49-3.31.96-.26,1.86.05,2.62-.15.72-.2.87-1.01.65-1.53h0Zm11.58,1.55c-2.1.56-4.2,1.13-6.32,1.7.73,1.19,2.17,1.44,3.58,1.06,1.52-.41,2.13-1.71,2.89-1.92.65-.18,1.43.21,1.65.75.46,1.08-1.7,2.84-3.9,3.45-3.36.93-6.48-.54-7.64-3.34-1.07-2.57.2-5.48,3.35-6.29,3.22-.83,6.33,1.07,7.2,3.14.3.75.09,1.21-.81,1.45h0Zm-7.09.04c1.56-.42,3.16-.84,4.74-1.26-.61-1.05-1.8-1.65-3.17-1.29-1.33.35-1.86,1.44-1.57,2.55h0Zm23.57-1.39c-.03-.08-.06-.16-.11-.23-1.39-2.13-2.81-4.24-4.22-6.36-.31-.46-1.24-.87-2.23-.62-.89.22-1.36.92-1.34,1.44.07,1.63.14,3.26.23,4.9-.02,0-.03,0-.03,0-1.19-1.36-2.35-2.71-3.52-4.07-.37-.43-1.28-.78-2.21-.56-.99.24-1.47,1.01-1.37,1.53.46,2.4.86,4.83,1.34,7.25.02.1.05.17.08.25.27.66,1.08,1.04,1.87.83,1-.26,1.2-.88,1.05-1.51-.37-1.58-.76-3.15-1.13-4.72,0,0,.02,0,.03,0,1.17,1.44,2.34,2.89,3.54,4.33.29.35.87.74,1.87.48,1.01-.27,1.14-.88,1.11-1.27-.12-1.71-.24-3.42-.35-5.12,0,0,.02,0,.03,0,.84,1.43,1.71,2.85,2.58,4.28.34.57.97.96,1.93.7.8-.2,1.11-.87.85-1.52h0Zm8.24-5.01c-1.93.48-3.87.96-5.84,1.44.69,1.15,2.05,1.42,3.32,1.1,1.39-.35,1.97-1.56,2.69-1.74.58-.14,1.32.24,1.54.75.44,1.03-1.59,2.65-3.62,3.17-3.09.79-5.98-.69-7.06-3.37-1-2.47.14-5.18,3.04-5.87,2.97-.71,5.86,1.18,6.68,3.16.29.72.08,1.15-.75,1.36h0Zm-6.57-.16c1.47-.35,2.94-.71,4.37-1.07-.58-1.01-1.64-1.61-2.93-1.3-1.21.3-1.71,1.32-1.44,2.37h0Zm7.52-8.12c.49,1.23,2.41,1.31,3.53,1.06,1.11-.25,2.65-1.16,2.19-2.32-.17-.43-.75-.9-1.23-.79-1.19.26-.58,1.33-1.57,1.55-1.15.25-1.33-.92-2.48-.67-.6.14-.62.72-.44,1.17h0Zm10.91,8.06c-.84-2.09-1.68-4.18-2.51-6.27-.31-.78-1.07-1.18-1.84-1.01-.48.11-.82.51-1.01,1.01-.6,1.59-1.22,3.18-1.81,4.78-.03,0-.05,0-.05,0-.44-1.14-.9-2.29-1.36-3.43-.31-.79-1.06-1.19-1.85-1.01-.79.18-1.13.83-.82,1.62.83,2.12,1.68,4.24,2.51,6.38.31.8,1.07,1.2,1.87,1.01.47-.11.73-.39.88-.81.64-1.72,1.3-3.43,1.94-5.14,0,0,0,0,.03,0,.46,1.16.92,2.32,1.4,3.49.32.79,1.08,1.19,1.86,1,.76-.17,1.07-.83.76-1.62h0Zm9.94-2.28c.31.78,0,1.41-.76,1.58s-1.48-.23-1.79-1.01c-.29-.75-.58-1.51-.89-2.27-1.1.24-2.22.48-3.32.72.29.76.59,1.52.88,2.28.3.78-.04,1.43-.8,1.6-.76.17-1.5-.24-1.8-1.02-.8-2.1-1.61-4.19-2.41-6.27-.3-.79.05-1.41.8-1.57.77-.16,1.5.24,1.8,1.02.24.64.5,1.27.74,1.91,1.12-.23,2.22-.47,3.33-.71-.24-.63-.5-1.26-.75-1.9-.3-.76.04-1.4.78-1.55.75-.16,1.47.25,1.77,1.01.81,2.06,1.6,4.12,2.42,6.18h0Zm3.12-2.18c-.53-1.41,1.42-1.66,2.95-1.97.03.12.08.24.12.36.42,1.1.08,1.85-1.22,2.12-.75.17-1.61.12-1.85-.51h0Zm4.12,1.09c.47.68.96.71,1.5.6.71-.15.98-.82.72-1.49-.65-1.65-1.3-3.29-1.93-4.93-.63-1.63-2.23-2.28-4.54-1.82-1.48.29-3.18,1.48-2.82,2.41.18.46.71.91,1.48.75.66-.14.61-.97,2.08-1.26.71-.14,1.15-.06,1.32.38.08.21.16.41.25.62-2.31.47-5.6,1.5-4.57,4.17.7,1.82,2.51,2.46,4.55,2.03.82-.19,1.76-.74,1.96-1.46h0Zm6.67-5.43c-.28.05-.56.1-.83.15-.68.13-1.31-.16-1.56-.81-.26-.68.11-1.12.8-1.25.26-.05.54-.1.81-.15.27.68.53,1.37.78,2.06h0Zm-2.01,1.59c-1.24-.05-2.41-.6-2.85-1.8-.67-1.84.25-2.88,2.19-3.23.84-.15,1.67-.3,2.5-.45.72-.13,1.41.28,1.69,1.02.73,1.96,1.45,3.93,2.2,5.91.28.75-.04,1.35-.75,1.49-.7.14-1.39-.27-1.68-1.02-.25-.67-.51-1.35-.76-2.02-.02,0-.03,0-.03,0-.5,1.14-1.01,2.28-1.5,3.42-.14.32-.48.48-.76.54-.67.13-1.35-.32-1.56-.88-.08-.21-.08-.44.05-.69.45-.77.86-1.54,1.26-2.3h0Zm11.46.37c.26.75.93,1.17,1.61,1.06.7-.11,1.03-.69.77-1.44-.27-.78-.56-1.56-.81-2.34h.03c1.29.81,2.58,1.62,3.88,2.43.47.29.92.57,1.36.5.6-.1.93-.64.71-1.23-.09-.24-.24-.51-.55-.69-1.25-.72-2.5-1.44-3.74-2.16.48-.81.96-1.62,1.45-2.43.19-.32.25-.62.14-.94-.17-.49-.75-.93-1.32-.84-.32.05-.7.27-.88.63-.54,1.06-1.09,2.11-1.62,3.17-.24-.68-.47-1.35-.7-2.03-.25-.73-.92-1.16-1.61-1.05-.67.1-1.01.66-.76,1.41.66,1.97,1.35,3.96,2.04,5.95h0Zm9.58-9.04c2.41-.3,4.76,1.49,5.5,3.69.76,2.27-.23,4.43-2.7,4.78s-4.79-1.38-5.54-3.68c-.73-2.25.31-4.49,2.74-4.79h0Zm.67,2c-1.28.16-1.46,1.42-1.1,2.47.35,1.05,1.31,2.14,2.56,1.97s1.44-1.4,1.09-2.45c-.35-1.05-1.3-2.15-2.55-1.99h0Zm17.1,3.48c-.03-.08-.04-.13-.08-.21-1.01-1.93-2-3.85-2.99-5.78-.21-.41-.92-.86-1.68-.79-.72.07-1.1.58-1.1,1.02-.02,1.35-.02,2.7-.04,4.05h-.02c-.84-1.26-1.7-2.52-2.54-3.79-.26-.39-.95-.81-1.67-.73-.75.08-1.17.65-1.12,1.09.23,2.03.5,4.08.75,6.13.01.07.01.14.04.21.18.58.8,1,1.4.93.77-.09.97-.57.89-1.11-.22-1.35-.45-2.69-.68-4.03h.02c.85,1.34,1.71,2.67,2.57,4.01.21.32.63.73,1.4.63.79-.09.92-.58.92-.9-.03-1.43-.06-2.85-.07-4.27h.05c.59,1.29,1.2,2.58,1.81,3.86.24.52.71.91,1.45.82.58-.06.87-.57.69-1.14h0Zm8.06-.91c.22.71-.08,1.22-.72,1.28-.62.06-1.21-.37-1.43-1.08-.5-1.63-1-3.26-1.48-4.88-.94.08-1.88.16-2.8.23.49,1.63.97,3.27,1.46,4.91.22.71-.09,1.23-.71,1.29-.65.06-1.26-.38-1.47-1.09-.55-1.87-1.13-3.74-1.68-5.6-.21-.7.11-1.21.75-1.26,1.66-.13,3.32-.27,4.96-.4.63-.05,1.21.38,1.42,1.08.55,1.83,1.13,3.67,1.7,5.52h0Zm2.7-1.52c-.36-1.29,1.29-1.26,2.56-1.34.02.11.07.22.1.33.28,1-.04,1.6-1.16,1.68-.64.04-1.34-.1-1.5-.67h0Zm3.36,1.45c.37.65.78.74,1.23.7.6-.04.87-.58.69-1.19-.45-1.5-.88-3.01-1.32-4.51-.43-1.49-1.73-2.25-3.68-2.13-1.25.07-2.75.9-2.51,1.74.12.42.53.87,1.19.83.57-.03.59-.76,1.82-.83.59-.04.97.09,1.08.49.05.19.11.37.17.56-1.98.13-4.76.61-4.07,3.04.47,1.66,1.95,2.44,3.67,2.32.7-.07,1.52-.43,1.73-1.02h0Zm9.92-.89c.19.69-.11,1.17-.72,1.2-.59.03-1.14-.41-1.33-1.1-.19-.68-.39-1.34-.57-2.01-.9.04-1.8.08-2.67.12.19.67.36,1.35.54,2.01.19.7-.12,1.18-.72,1.21-.61.03-1.18-.41-1.37-1.11-.5-1.85-.99-3.7-1.49-5.54-.19-.69.12-1.16.72-1.19.62-.02,1.18.42,1.36,1.11.15.56.3,1.12.46,1.69.88-.04,1.78-.08,2.66-.11-.15-.56-.31-1.12-.46-1.68-.19-.68.12-1.15.72-1.18.59-.02,1.15.41,1.34,1.1.5,1.83,1.01,3.65,1.53,5.48h0Zm7.86-.26c-.5-1.81-1.02-3.6-1.52-5.39-.18-.67-.73-1.11-1.3-1.09-.37,0-.66.27-.84.64-.55,1.17-1.09,2.34-1.62,3.52h-.03c-.26-.98-.52-1.96-.78-2.94-.18-.68-.74-1.11-1.34-1.1-.59,0-.89.48-.71,1.16.48,1.81.99,3.63,1.49,5.46.19.68.73,1.13,1.32,1.1.36,0,.57-.2.71-.51.58-1.27,1.17-2.52,1.77-3.77h.02c.28,1,.57,1.99.84,3,.18.68.72,1.12,1.31,1.09.56-.02.87-.49.68-1.17h0Zm3.73-3.24c-.23,0-.45,0-.67,0-.58,0-1.06-.32-1.21-.9-.15-.6.15-.93.72-.93.22,0,.43,0,.67,0,.16.61.31,1.22.49,1.83h0Zm-1.7,1.03c-1-.22-1.91-.84-2.18-1.91-.43-1.63.38-2.37,1.96-2.38.68,0,1.35,0,2.05,0,.57,0,1.1.43,1.28,1.1.47,1.74.91,3.49,1.39,5.25.18.67-.13,1.12-.69,1.14-.58,0-1.12-.43-1.29-1.1-.15-.6-.33-1.19-.48-1.79h-.02c-.48.88-.97,1.75-1.43,2.63-.13.24-.43.33-.64.34-.55,0-1.08-.46-1.21-.96-.05-.18-.01-.37.12-.57.39-.57.76-1.16,1.14-1.74Z"/>
  <path class="cls-6" d="m101.12,75.34c-.51-1.23-3.18-.93-4.4-.61-3.22.86-4.51,3.83-3.44,6.44,1.1,2.7,4.28,4.34,7.6,3.41,1.08-.31,3.52-1.5,2.96-2.8-.26-.6-1.07-.96-1.78-.75-.35.1-1.27.96-2.02,1.17-1.68.47-3.15-.6-3.68-1.87-.55-1.31-.26-2.84,1.49-3.31.96-.26,1.86.05,2.62-.15.72-.2.87-1.01.65-1.53h0Zm11.58,1.55c-2.1.56-4.2,1.13-6.32,1.7.73,1.19,2.17,1.44,3.58,1.06,1.52-.41,2.13-1.71,2.89-1.92.65-.18,1.43.21,1.65.75.46,1.08-1.7,2.84-3.9,3.45-3.36.93-6.48-.54-7.64-3.34-1.07-2.57.2-5.48,3.35-6.29,3.22-.83,6.33,1.07,7.2,3.14.3.74.09,1.21-.81,1.45h0Zm-7.09.04c1.56-.42,3.16-.84,4.74-1.26-.61-1.05-1.8-1.65-3.17-1.29-1.32.35-1.85,1.44-1.57,2.55h0Zm23.57-1.39c-.03-.08-.06-.16-.11-.23-1.39-2.13-2.81-4.24-4.22-6.36-.31-.46-1.24-.87-2.23-.62-.89.22-1.36.92-1.34,1.44.07,1.63.14,3.26.23,4.9-.02,0-.03,0-.03,0-1.19-1.36-2.35-2.71-3.52-4.07-.37-.43-1.28-.78-2.21-.56-.99.24-1.47,1.01-1.37,1.53.46,2.4.86,4.83,1.34,7.25.02.1.05.17.08.25.27.66,1.08,1.04,1.87.83,1-.26,1.2-.88,1.05-1.51-.37-1.58-.76-3.15-1.13-4.72,0,0,.02,0,.03,0,1.17,1.44,2.34,2.89,3.54,4.33.29.35.87.74,1.87.48,1.01-.27,1.14-.88,1.11-1.27-.12-1.71-.24-3.42-.35-5.12,0,0,.02,0,.03,0,.84,1.43,1.71,2.85,2.58,4.28.34.57.97.96,1.93.7.8-.2,1.12-.87.85-1.52h0Zm8.24-5.01c-1.93.48-3.87.96-5.84,1.44.69,1.15,2.05,1.42,3.32,1.1,1.39-.35,1.97-1.56,2.69-1.74.58-.14,1.32.24,1.54.75.44,1.03-1.59,2.65-3.62,3.17-3.09.79-5.98-.69-7.06-3.37-1-2.47.14-5.18,3.04-5.87,2.97-.71,5.86,1.18,6.68,3.16.29.72.08,1.15-.75,1.36h0Zm-6.57-.16c1.47-.35,2.94-.71,4.37-1.07-.58-1.01-1.64-1.61-2.93-1.3-1.21.29-1.71,1.32-1.44,2.37h0Zm7.52-8.12c.49,1.23,2.41,1.31,3.53,1.07,1.11-.25,2.65-1.16,2.19-2.32-.17-.43-.75-.9-1.23-.79-1.19.26-.58,1.33-1.57,1.55-1.15.25-1.33-.92-2.48-.67-.6.13-.62.7-.44,1.16h0Zm10.91,8.06c-.84-2.09-1.68-4.18-2.51-6.27-.31-.78-1.07-1.18-1.84-1.01-.48.11-.82.51-1.01,1.01-.6,1.59-1.22,3.18-1.81,4.78-.03,0-.05,0-.05,0-.44-1.14-.9-2.29-1.36-3.43-.31-.79-1.06-1.19-1.85-1.01-.79.18-1.13.83-.82,1.62.83,2.12,1.68,4.24,2.51,6.38.31.8,1.07,1.2,1.87,1.01.47-.11.73-.39.88-.81.64-1.72,1.3-3.43,1.94-5.13,0,0,0,0,.03,0,.46,1.16.92,2.32,1.4,3.49.32.79,1.08,1.19,1.86,1,.76-.19,1.08-.84.76-1.63h0Zm9.95-2.28c.31.78-.01,1.41-.76,1.58-.75.17-1.48-.23-1.79-1.01-.29-.75-.58-1.51-.89-2.27-1.1.24-2.22.48-3.32.72.29.76.59,1.52.88,2.28.3.78-.04,1.43-.8,1.6-.76.17-1.5-.24-1.8-1.02-.8-2.1-1.61-4.19-2.41-6.27-.3-.79.05-1.41.8-1.57.77-.16,1.5.24,1.8,1.02.24.64.5,1.27.74,1.91,1.12-.23,2.22-.47,3.33-.71-.24-.63-.5-1.26-.75-1.9-.3-.76.04-1.4.78-1.55.75-.16,1.47.25,1.77,1.01.8,2.06,1.59,4.12,2.42,6.18h0Zm3.11-2.18c-.53-1.41,1.42-1.66,2.95-1.97.03.12.08.24.12.36.42,1.1.08,1.85-1.22,2.12-.75.17-1.61.12-1.85-.51h0Zm4.12,1.09c.47.68.96.71,1.5.6.71-.15.98-.82.72-1.49-.65-1.65-1.3-3.29-1.93-4.93-.63-1.63-2.23-2.28-4.54-1.82-1.48.29-3.18,1.48-2.82,2.41.18.46.71.91,1.48.75.66-.14.61-.97,2.08-1.26.71-.14,1.15-.06,1.32.38.08.21.16.42.25.62-2.31.47-5.6,1.5-4.57,4.17.7,1.82,2.51,2.46,4.55,2.03.82-.19,1.76-.75,1.96-1.46h0Zm6.67-5.43c-.28.05-.56.1-.83.15-.68.13-1.31-.16-1.56-.81-.26-.68.11-1.12.8-1.25.26-.05.54-.1.81-.15.27.68.53,1.37.78,2.06h0Zm-2,1.59c-1.24-.05-2.41-.6-2.85-1.8-.67-1.84.25-2.88,2.19-3.23.84-.15,1.67-.3,2.5-.45.72-.13,1.41.28,1.69,1.02.73,1.96,1.45,3.93,2.2,5.91.28.75-.04,1.35-.75,1.49-.7.14-1.39-.26-1.68-1.02-.25-.67-.51-1.35-.76-2.02-.02,0-.03,0-.03,0-.5,1.14-1.01,2.28-1.5,3.42-.14.32-.48.48-.76.54-.67.13-1.35-.32-1.56-.88-.08-.21-.08-.44.05-.69.44-.77.85-1.54,1.26-2.3h0Zm11.45.37c.26.75.93,1.17,1.61,1.06.7-.11,1.03-.69.77-1.44-.27-.78-.56-1.56-.81-2.34h.03c1.29.81,2.58,1.62,3.88,2.43.47.29.92.57,1.36.5.6-.1.93-.64.71-1.23-.09-.24-.24-.51-.55-.69-1.25-.72-2.5-1.44-3.74-2.16.48-.81.96-1.62,1.45-2.43.19-.32.25-.62.14-.94-.17-.49-.75-.93-1.32-.84-.32.05-.7.27-.88.63-.54,1.06-1.09,2.11-1.62,3.17-.24-.68-.47-1.35-.7-2.03-.25-.73-.92-1.16-1.61-1.05-.67.1-1.01.66-.76,1.41.67,1.97,1.36,3.96,2.04,5.95h0Zm9.58-9.04c2.41-.3,4.76,1.49,5.5,3.69.76,2.27-.23,4.43-2.7,4.78s-4.79-1.38-5.54-3.68c-.73-2.25.31-4.49,2.74-4.79h0Zm.67,1.99c-1.28.16-1.46,1.42-1.1,2.47.35,1.05,1.31,2.14,2.56,1.97s1.44-1.4,1.09-2.45c-.35-1.04-1.3-2.14-2.55-1.99h0Zm17.1,3.49c-.03-.08-.04-.13-.08-.21-1.01-1.93-2-3.85-2.99-5.78-.21-.41-.92-.86-1.68-.79-.72.07-1.1.58-1.1,1.02-.02,1.35-.02,2.7-.04,4.05h-.02c-.84-1.26-1.7-2.52-2.54-3.79-.26-.39-.95-.81-1.67-.73-.75.08-1.17.65-1.12,1.09.23,2.03.5,4.08.75,6.13.01.07.01.14.04.21.18.58.8,1,1.4.93.77-.09.97-.57.89-1.11-.22-1.35-.45-2.69-.68-4.03,0,0,.02,0,.01,0,.85,1.34,1.71,2.67,2.57,4.01.21.32.63.73,1.4.63.79-.09.92-.58.92-.9-.03-1.43-.06-2.85-.07-4.27h.05c.59,1.29,1.2,2.58,1.81,3.86.24.52.71.91,1.45.82.59-.06.88-.57.7-1.14h0Zm8.06-.92c.22.71-.08,1.22-.72,1.28-.62.06-1.21-.37-1.43-1.08-.5-1.63-1-3.26-1.48-4.88-.94.08-1.88.16-2.8.23.49,1.63.97,3.27,1.46,4.91.22.71-.09,1.23-.71,1.29-.65.06-1.26-.38-1.47-1.09-.55-1.87-1.13-3.74-1.68-5.6-.21-.7.11-1.21.75-1.26,1.66-.13,3.32-.27,4.96-.4.63-.05,1.21.38,1.42,1.08.56,1.84,1.13,3.68,1.7,5.52h0Zm2.7-1.51c-.36-1.29,1.29-1.26,2.56-1.34.02.11.07.22.1.33.28,1-.04,1.6-1.16,1.68-.63.04-1.34-.1-1.5-.67h0Zm3.37,1.44c.37.65.78.74,1.23.7.6-.04.87-.58.69-1.19-.45-1.5-.88-3.01-1.32-4.51-.43-1.49-1.73-2.25-3.68-2.13-1.25.07-2.75.9-2.51,1.74.12.42.53.87,1.19.83.57-.03.59-.76,1.82-.83.59-.04.97.09,1.08.49.05.19.11.37.17.56-1.98.12-4.76.61-4.07,3.04.47,1.66,1.95,2.44,3.67,2.32.69-.06,1.51-.42,1.73-1.02h0Zm9.91-.88c.19.69-.11,1.17-.72,1.2-.59.03-1.14-.41-1.33-1.1-.19-.68-.39-1.34-.57-2.01-.9.04-1.8.08-2.67.12.19.67.36,1.35.54,2.01.19.7-.12,1.18-.72,1.21-.61.03-1.18-.41-1.37-1.11-.5-1.85-.99-3.7-1.49-5.54-.19-.69.12-1.16.72-1.19.62-.02,1.18.42,1.36,1.11.15.56.3,1.12.46,1.69.88-.04,1.78-.08,2.66-.11-.15-.56-.31-1.12-.46-1.68-.19-.68.12-1.15.72-1.18.59-.02,1.15.41,1.34,1.1.5,1.83,1.01,3.65,1.53,5.48h0Zm7.86-.26c-.5-1.81-1.02-3.6-1.52-5.39-.18-.67-.73-1.11-1.3-1.09-.37.01-.66.27-.84.64-.55,1.17-1.09,2.34-1.62,3.52h-.03c-.26-.98-.52-1.96-.78-2.94-.18-.68-.74-1.11-1.34-1.1-.59.01-.89.48-.71,1.16.48,1.81.99,3.63,1.49,5.46.19.68.73,1.13,1.32,1.1.36,0,.57-.2.71-.51.58-1.27,1.17-2.52,1.77-3.77h.02c.28,1,.57,1.99.84,3,.18.68.72,1.12,1.31,1.09.56-.02.87-.49.68-1.17h0Zm3.73-3.24c-.23,0-.45,0-.67,0-.58,0-1.06-.32-1.21-.9-.15-.6.15-.93.72-.93.22,0,.43,0,.67,0,.16.61.32,1.22.49,1.83h0Zm-1.7,1.03c-1-.22-1.91-.84-2.18-1.91-.43-1.63.38-2.37,1.96-2.38.68,0,1.35-.01,2.05-.01.57-.01,1.1.43,1.28,1.1.47,1.74.91,3.49,1.39,5.25.18.67-.13,1.12-.69,1.14-.58,0-1.12-.43-1.29-1.1-.15-.6-.33-1.19-.48-1.79h-.02c-.48.88-.97,1.75-1.43,2.63-.13.24-.43.33-.64.34-.55,0-1.08-.46-1.21-.96-.05-.18-.01-.37.12-.57.39-.58.76-1.16,1.14-1.74Z"/>
</svg>