<svg xmlns="http://www.w3.org/2000/svg" version="1.1" xmlns:xlink="http://www.w3.org/1999/xlink" width="100" height="100"><svg xmlns="http://www.w3.org/2000/svg" version="1.1" xmlns:xlink="http://www.w3.org/1999/xlink" width="100" height="100"><svg width="100" height="100" viewBox="0 0 100 100" fill="none" xmlns="http://www.w3.org/2000/svg">
<path d="M66.7198 58.064C66.7198 60.24 66.9758 61.776 67.4878 62.672C67.9998 63.568 69.0238 64.208 70.5598 64.592L70.1758 73.616C68.1278 73.936 66.3358 74.16 64.7998 74.288C63.3278 74.416 61.3438 74.48 58.8478 74.48C53.3438 74.48 49.6958 73.264 47.9038 70.832C46.1118 68.336 45.2158 65.168 45.2158 61.328V58.928C43.3598 64.176 40.6398 68.08 37.0558 70.64C33.5358 73.2 29.0238 74.48 23.5198 74.48C17.1198 74.48 12.2878 73.2 9.02375 70.64C5.82375 68.08 4.22375 64.272 4.22375 59.216C4.22375 55.056 5.59975 51.792 8.35175 49.424C11.1038 47.056 15.3598 45.424 21.1198 44.528C16.2558 41.072 11.3918 38.064 6.52775 35.504C10.3678 30.64 14.7518 26.96 19.6798 24.464C24.6078 21.904 30.5918 20.624 37.6318 20.624C47.4878 20.624 54.7838 22.768 59.5198 27.056C64.3198 31.28 66.7198 37.808 66.7198 46.64V58.064ZM39.6478 37.52C36.3838 37.52 33.5038 38.064 31.0078 39.152C28.5118 40.24 26.2718 41.872 24.2878 44.048C28.1278 43.6 32.9278 43.376 38.6878 43.376C41.0558 43.376 42.7198 43.088 43.6798 42.512C44.6398 41.936 45.1198 41.2 45.1198 40.304C45.1198 39.536 44.6398 38.896 43.6798 38.384C42.7198 37.808 41.3758 37.52 39.6478 37.52ZM29.5677 58.832C33.1518 58.832 36.3838 58.16 39.2638 56.816C42.1438 55.408 44.1278 53.584 45.2158 51.344V48.848C43.6798 49.616 41.9838 50.224 40.1278 50.672C38.2718 51.056 36.0318 51.44 33.4078 51.824L29.9518 52.4C26.3678 53.104 24.5758 54.32 24.5758 56.048C24.5758 57.904 26.2398 58.832 29.5677 58.832ZM85.556 74.96C82.74 74.96 80.34 73.968 78.356 71.984C76.372 69.936 75.38 67.504 75.38 64.688C75.38 61.872 76.372 59.472 78.356 57.488C80.34 55.504 82.74 54.512 85.556 54.512C88.308 54.512 90.676 55.536 92.66 57.584C94.708 59.568 95.732 61.936 95.732 64.688C95.732 67.504 94.708 69.936 92.66 71.984C90.676 73.968 88.308 74.96 85.556 74.96Z" fill="url(#paint0_linear_2533_3693)"></path>
<defs>
<linearGradient id="paint0_linear_2533_3693" x1="0" y1="4" x2="109.308" y2="53.4081" gradientUnits="userSpaceOnUse">
<stop stop-color="#FF2F2F" style="stop-color:#FF2F2F;stop-color:color(display-p3 1.0000 0.1843 0.1843);stop-opacity:1;"></stop>
<stop offset="0.5" stop-color="#FFB319" style="stop-color:#FFB319;stop-color:color(display-p3 1.0000 0.7020 0.0980);stop-opacity:1;"></stop>
<stop offset="1" stop-color="#3448F0" style="stop-color:#3448F0;stop-color:color(display-p3 0.2039 0.2824 0.9412);stop-opacity:1;"></stop>
</linearGradient>
</defs>
</svg></svg><style>@media (prefers-color-scheme: light) { :root { filter: none; } }
@media (prefers-color-scheme: dark) { :root { filter: none; } }
</style></svg>