<svg width="96" height="57" viewBox="0 0 96 57" fill="none" xmlns="http://www.w3.org/2000/svg">
<path d="M65.1 39.4C65.1 41.6667 65.3667 43.2667 65.9 44.2C66.4333 45.1333 67.5 45.8 69.1 46.2L68.7 55.6C66.5667 55.9333 64.7 56.1667 63.1 56.3C61.5667 56.4333 59.5 56.5 56.9 56.5C51.1667 56.5 47.3667 55.2333 45.5 52.7C43.6333 50.1 42.7 46.8 42.7 42.8V40.3C40.7667 45.7667 37.9333 49.8333 34.2 52.5C30.5333 55.1667 25.8333 56.5 20.1 56.5C13.4333 56.5 8.4 55.1667 5 52.5C1.66667 49.8333 1.19209e-07 45.8667 1.19209e-07 40.6C1.19209e-07 36.2667 1.43333 32.8667 4.3 30.4C7.16667 27.9333 11.6 26.2333 17.6 25.3C12.5333 21.7 7.46667 18.5667 2.4 15.9C6.4 10.8333 10.9667 7 16.1 4.4C21.2333 1.73333 27.4667 0.399995 34.8 0.399995C45.0667 0.399995 52.6667 2.63333 57.6 7.1C62.6 11.5 65.1 18.3 65.1 27.5V39.4ZM36.9 18C33.5 18 30.5 18.5667 27.9 19.7C25.3 20.8333 22.9667 22.5333 20.9 24.8C24.9 24.3333 29.9 24.1 35.9 24.1C38.3667 24.1 40.1 23.8 41.1 23.2C42.1 22.6 42.6 21.8333 42.6 20.9C42.6 20.1 42.1 19.4333 41.1 18.9C40.1 18.3 38.7 18 36.9 18ZM26.4 40.2C30.1333 40.2 33.5 39.5 36.5 38.1C39.5 36.6333 41.5667 34.7333 42.7 32.4V29.8C41.1 30.6 39.3333 31.2333 37.4 31.7C35.4667 32.1 33.1333 32.5 30.4 32.9L26.8 33.5C23.0667 34.2333 21.2 35.5 21.2 37.3C21.2 39.2333 22.9333 40.2 26.4 40.2ZM84.7211 57C81.7878 57 79.2878 55.9667 77.2211 53.9C75.1544 51.7667 74.1211 49.2333 74.1211 46.3C74.1211 43.3667 75.1544 40.8667 77.2211 38.8C79.2878 36.7333 81.7878 35.7 84.7211 35.7C87.5878 35.7 90.0544 36.7667 92.1211 38.9C94.2544 40.9667 95.3211 43.4333 95.3211 46.3C95.3211 49.2333 94.2544 51.7667 92.1211 53.9C90.0544 55.9667 87.5878 57 84.7211 57Z" fill="url(#paint0_linear_531_3685)"/>
<defs>
<linearGradient id="paint0_linear_531_3685" x1="-3" y1="-17" x2="109.32" y2="32.6569" gradientUnits="userSpaceOnUse">
<stop stop-color="#FF2F2F"/>
<stop offset="0.5" stop-color="#FFB319"/>
<stop offset="1" stop-color="#3448F0"/>
</linearGradient>
</defs>
</svg>
